<svg xmlns="http://www.w3.org/2000/svg" width="64" height="76" viewBox="0 0 16 19">
    <g>
        <g>
            <path fill="#000" d="M2 4h9a1 1 0 0 1 1 1v12.64l-5.16-3.67a.49.49 0 0 0-.68 0L1 17.64V5a1 1 0 0 1 1-1zm0-1C.9 3 0 3.9 0 5v13.66h.01a.5.5 0 0 0 .83.32l5.66-4.13 5.67 4.13a.5.5 0 0 0 .7-.03.5.5 0 0 0 .12-.29H13V5a2 2 0 0 0-2-2z"/>
        </g>
        <g>
            <path fill="#000" d="M16 2v13.66h-.01a.5.5 0 0 1-.12.29.5.5 0 0 1-.7.03l-.17-.12V2a1 1 0 0 0-1-1H5a1 1 0 0 0-1 1H3c0-1.1.9-2 2-2h9a2 2 0 0 1 2 2z"/>
        </g>
    </g>
</svg>