<svg xmlns="http://www.w3.org/2000/svg" width="286.887" height="177.949" viewBox="0 0 286.887 177.949">
  <g id="Group_3" data-name="Group 3" transform="translate(-2093.585 -1222.336)">
    <path id="Shape" d="M17.545,150.168h0c-2.6-.5-5.5-2.455-7.98-5.362A18.389,18.389,0,0,1,2.94,146.2a10.03,10.03,0,0,1-2.94-.4c.5-2.6,2.456-5.505,5.362-7.98-1.4-3.551-1.765-7.038-.988-9.564,2.6.5,5.505,2.455,7.981,5.362a18.39,18.39,0,0,1,6.623-1.391,10.032,10.032,0,0,1,2.94.4c-.5,2.6-2.456,5.505-5.362,7.98,1.4,3.549,1.765,7.036.989,9.563Zm249.3-67.033h0c-2.613-2.793-4.356-7.554-4.781-13.063-5.352-1.377-9.739-3.921-12.036-6.979,2.795-2.613,7.556-4.355,13.064-4.782,1.376-5.352,3.92-9.738,6.978-12.035,2.614,2.794,4.356,7.555,4.782,13.064,5.352,1.377,9.739,3.921,12.036,6.979-2.795,2.613-7.556,4.355-13.064,4.782-1.376,5.351-3.919,9.738-6.977,12.034ZM42.8,25.431h0c-2.14-1.551-3.95-4.552-4.965-8.232-3.812-.228-7.124-1.375-9.086-3.147C30.3,11.911,33.3,10.1,36.984,9.086,37.211,5.274,38.359,1.962,40.13,0c2.141,1.55,3.951,4.551,4.967,8.232,3.812.228,7.124,1.375,9.086,3.146-1.551,2.142-4.552,3.952-8.232,4.967-.228,3.812-1.375,7.123-3.147,9.085Z" transform="translate(2093.585 1222.336)" fill="#e0e2ff"/>
    <g id="folder" transform="matrix(-0.174, -0.985, 0.985, -0.174, 2167.535, 1400.058)">
      <path id="Rectangle_18" data-name="Rectangle 18" d="M8.746,3.255A394.959,394.959,0,0,1,58.22,0a342.622,342.622,0,0,1,45.275,3l1.958.266a10,10,0,0,1,8.58,8.981l.347,3.815q2.864,32.136,2.851,54.4l0,.869q-.072,22.838-2.976,51.315a10,10,0,0,1-9.948,8.986H10a10,10,0,0,1-10-10V13.177A10,10,0,0,1,8.746,3.255Z" transform="translate(5.217 0.488)" fill="#e6e9ff" stroke="#828ff4" stroke-linecap="round" stroke-miterlimit="10" stroke-width="3"/>
      <path id="Rectangle_17" data-name="Rectangle 17" d="M75.479,15.9,75.3,92.562a10,10,0,0,0,5.714,9.059l7.491,3.553a10,10,0,0,1,5.714,9.035V138.6A10,10,0,0,1,82.19,148.4L7.973,133.035A10,10,0,0,1,0,123.242V10" transform="translate(9 5.116)" fill="#e6e9ff" stroke="#828ff4" stroke-linecap="round" stroke-miterlimit="10" stroke-width="3"/>
      <path id="Rectangle_17-2" data-name="Rectangle 17" d="M16.2.424,59.191,13.341a10,10,0,0,1,7.122,9.577v78.8A10,10,0,0,0,72.591,111l12.861,5.158a10,10,0,0,1,6.278,9.281v23.785a10,10,0,0,1-10,10q-.314,0-.627-.02a271.468,271.468,0,0,1-37.235-4.9,188.205,188.205,0,0,1-33.26-9.7l-.92-.379a10,10,0,0,1-6.08-7.976Q.8,114.134.13,87.973L.086,86.164Q-.538,58.881,3.353,9.219A10,10,0,0,1,16.2.424Z" transform="translate(0.771 4.325)" fill="#fff" stroke="#7e86ee" stroke-linecap="round" stroke-miterlimit="10" stroke-width="3"/>
    </g>
  </g>
</svg>
