<svg id="Layer_1" data-name="Layer 1" xmlns="http://www.w3.org/2000/svg" xmlns:xlink="http://www.w3.org/1999/xlink" viewBox="0 0 69.21 89.35"><defs><style>.cls-1{fill:#070404;}.cls-1,.cls-2,.cls-3,.cls-4,.cls-5,.cls-6,.cls-7,.cls-8,.cls-9{fill-rule:evenodd;}.cls-2{fill:#f4dabc;}.cls-3{fill:#e29899;}.cls-4{fill:#dbbb93;}.cls-5{fill:#fff;}.cls-6{fill:#e8e7e9;}.cls-7{fill:#fff9f5;}.cls-8{fill:#e41e26;}.cls-9{fill:url(#linear-gradient);}</style><linearGradient id="linear-gradient" x1="93.9" y1="286.63" x2="93.9" y2="287.65" gradientTransform="translate(-3186.83 -14078.6) scale(34.42 49.16)" gradientUnits="userSpaceOnUse"><stop offset="0" stop-color="#13c2e9"/><stop offset="0.5" stop-color="#a677b4"/><stop offset="1" stop-color="#f0515a"/></linearGradient></defs><path id="Fill-1" class="cls-1" d="M69.89,71a18.09,18.09,0,0,1-4.28-.31,1.25,1.25,0,0,1-.85.89,21.44,21.44,0,0,1-2.84.71L64.86,96h0a6.46,6.46,0,0,0,.11.75,5.65,5.65,0,0,0,.21,1.08h0a1.27,1.27,0,0,1-.81,1.45,47.28,47.28,0,0,1-27.68,1.45h-.12a1.25,1.25,0,0,1-.77-1.59h0c.7-2,1.41-4,1.93-5.66a19.65,19.65,0,0,0,.84-3c.06-1.8-1.56-3.76-3.11-5.66-2.85-3.47-5.55-6.76-1.2-10.33a16.18,16.18,0,0,1,3.56-2.27l.59-.23c-.41-.69-.78-1.43-1.14-2.17A18.71,18.71,0,0,0,36,67.38a1.26,1.26,0,0,1-.25-.52l-.22-1a.55.55,0,0,1-.08.34h0c-.14.59-.26,1.09-.37,1.47a10.11,10.11,0,0,1-.35,1.06,1.48,1.48,0,0,1-.47.61l-.47.43a1.25,1.25,0,0,1-1.2.38c-.84-.18-1.52-1-2.63-2.36l-.06-.07-.49-.6h0a41.3,41.3,0,0,0-6.87-6c-3.93-3-7.52-5.7-7.73-9.08-.18-2.9,1.58-5.22,3.56-7.84a27.49,27.49,0,0,0,3.52-5.52A21,21,0,0,1,26,32.1,15.42,15.42,0,0,1,30.45,29a8,8,0,0,1,2.6-.65c.19,0,1-.13,1.21-.14-.23-.93-.59-2.51,0-2.63a5.13,5.13,0,0,1,2.24-.11,1.64,1.64,0,0,1,.26-.2,10,10,0,0,1,3.08-1.21,8.5,8.5,0,0,1,3.82.09,1.24,1.24,0,0,1,.93.89v.1a4.6,4.6,0,0,0,.75,1.56c.14.2-.34.47-.17.46h0a21.85,21.85,0,0,1,3.69-.43h.65a21.08,21.08,0,0,1,3.64.06,12.42,12.42,0,0,1,3,.68A15.33,15.33,0,0,1,63.6,33.3,19.9,19.9,0,0,1,66.83,43a22.29,22.29,0,0,0,.57,3.82,35.37,35.37,0,0,0,1.81,5.28h0a1.32,1.32,0,0,1,.09.48,22.7,22.7,0,0,0,5.88,2,7.24,7.24,0,0,1,5.38,4,9.39,9.39,0,0,1,.13,7.68,5.24,5.24,0,0,1-3.75,3.22,1.26,1.26,0,0,1-1-.19c-1.28,1-3.26,1.56-6.08,1.7" transform="translate(-12.24 -12.79)"/><path id="Fill-3" class="cls-2" d="M30.75,45c-.11-.28-.21-.57-.32-.88-.94-2.79-2.75-10.27.7-13.54-2.14,3.28-.85,9.4.09,12.48-.15.58-.31,1.27-.47,1.93M64.38,70.4C58.93,72,48,66.52,45.17,59.16c1-.3,2.24-.66,3.51-1,4,4.8,12.13,12,21.15,11.6,7-.35,7.94-3.27,5.27-9.45,2.16,2.13,1.83,4.74,1.58,8C81.27,67.48,82,57.1,75,55.8S59.23,49.13,58,40.35a20.16,20.16,0,0,0,10,12.2,26.66,26.66,0,0,1-2.47-9.48c-.47-6.47-3.38-12-9.74-14.46a15.31,15.31,0,0,0-6.16-.67,24.52,24.52,0,0,0-4.19.45c-.52.11-1.84-1.68-2.11-3a7.82,7.82,0,0,0-6,1,5.23,5.23,0,0,1,.68,3c-1.13-2-1.24-3.05-3.53-2.55l.74,2.91a7.23,7.23,0,0,0-4.26.41c-2.88,1.43-5.46,3.16-8,9-2.3,5.3-7.23,8.62-7,12.78.29,4.72,9.69,8.76,14.31,14.39,1.28,1.55,2,2.48,2.47,2.59l.65-.59h0A17.93,17.93,0,0,0,34.07,66c.27-1.23.48-2.48.63-3.73L35.8,62l3,2c1.3,1.79.24,7.64,1.83,9-1.34-.37-3.69.82-5.73,2.49-5.6,4.69,5.1,9.56,4.92,15,0,1-1.43,5-2.84,9.07a46.24,46.24,0,0,0,27-1.41,13.67,13.67,0,0,1-.33-2l-3-23.7a22.81,22.81,0,0,1-5.6-.06c-5.9-1.65-9-5.62-11.49-10.89,4.07,5.11,9.73,12.43,20.81,8.92" transform="translate(-12.24 -12.79)"/><path id="Fill-5" class="cls-3" d="M31.88,43.05a20.68,20.68,0,0,1-.49-12.21,5.25,5.25,0,0,1,3,1.08Z" transform="translate(-12.24 -12.79)"/><path id="Fill-7" class="cls-1" d="M73.62,36l-2.38-2.33v.07h0c.07.43.14.88.2,1.34.13.94.23,1.91.31,2.85s.14,2.16.18,3.2v3.76h0l.09.2a12.84,12.84,0,0,0,1.28,2.7c.07.09-.08.3,0,.24a9.47,9.47,0,0,0,3.09-3.67,6.33,6.33,0,0,0,.43-4,4.65,4.65,0,0,0-2.15-3.54c-.26-.2-.55-.42-.93-.73Zm-13-7.73-.55.25a15.89,15.89,0,0,1,4.3,4.31,18.09,18.09,0,0,1,2.21,4.63,23,23,0,0,1,1,5.46,2.85,2.85,0,0,0,0,.67L69,43.32a68.41,68.41,0,0,0-.51-7.57A15.58,15.58,0,0,0,67.29,31a6,6,0,0,0-2.91-2.82,5.12,5.12,0,0,0-3.79.1Zm-3.06-.53A9.31,9.31,0,0,1,58.67,27a7.65,7.65,0,0,1,1.18-.59,7.09,7.09,0,0,1,5.28-.09,29.08,29.08,0,0,1,5.67,4.13l4.2,4.1c.29.24.59.48.87.69,1.56,1.21,2.27,1.76,2.9,4.72a8.42,8.42,0,0,1-.56,5.26,11.8,11.8,0,0,1-3.72,4.45c-1.12.84-2,.41-2.83-.64a15,15,0,0,1-1.55-3.17l-.08-.2a1.34,1.34,0,0,1-.07-.27v-.21l-.43.09a23.06,23.06,0,0,1-2.74.47,1,1,0,0,1-1.06-.94v-.06h0a6.43,6.43,0,0,0-.09-.82,8.67,8.67,0,0,0-.06-.88,22.39,22.39,0,0,0-.93-5,16.2,16.2,0,0,0-2-4.12,13.67,13.67,0,0,0-5-4.52,1,1,0,0,1-.41-1.35h0a1.05,1.05,0,0,1,.29-.34Z" transform="translate(-12.24 -12.79)"/><path id="Fill-9" class="cls-2" d="M69.25,30.33c.12.4.68,2,.78,2.41.17.77.31,1.61.43,2.48.26,1.92.4,4,.48,6a35.22,35.22,0,0,0,0,4.11c.76,1.92,1.72,4.48,2.92,3.58,3-2.28,4.61-5.34,3.89-8.7S76.38,37,74.33,35.28ZM58.13,28.55a9.69,9.69,0,0,1,2.09-1.22c3.2-1.25,6.23-.06,8,3.19C69.62,33.19,70,40,70,44.14c-.29,0-2.4.54-3.3.59-.07-.59-.11-1.17-.16-1.74a19.47,19.47,0,0,0-3.06-9.59A14.67,14.67,0,0,0,58.13,28.55Z" transform="translate(-12.24 -12.79)"/><path id="Fill-11" class="cls-4" d="M53.42,51.12c-1.24,2-3.51,3.1-6.25,3.89C42,56.47,37.11,56.23,35.25,48.82c-1.62-6.45.19-12.74,4.08-15.23-3.47,2.63-5.06,8.14-3.59,13.76.77,2.91,2.1,4.63,3.79,5.53l-.08-.07c2.29,2,5.49,1.77,8.81.85a11.86,11.86,0,0,0,5.15-2.53" transform="translate(-12.24 -12.79)"/><path id="Fill-13" class="cls-5" d="M42.3,33.72c5-1.37,10.43,3,12.19,9.83s-1.59,9.22-6.56,10.59-9.68,1.17-11.44-5.63.84-13.42,5.81-14.79" transform="translate(-12.24 -12.79)"/><path id="Fill-15" class="cls-1" d="M41.68,32.74A9,9,0,0,1,50,35a9.16,9.16,0,0,1,2.4,3.63s-4.07-6.6-10.06-5c-5,1.38-7.57,8-5.81,14.8a9,9,0,0,0,2.71,4.83c-1.69-.89-3-2.61-3.79-5.53-1.8-6.89,1-13.65,6.27-15.08" transform="translate(-12.24 -12.79)"/><path id="Fill-17" class="cls-6" d="M39.19,53.35c2.28,1.92,5.46,1.7,8.74.79a11.39,11.39,0,0,0,5.47-2.86A13.64,13.64,0,0,1,49,53.21c-5,1.38-9.68,1.18-11.44-5.62-1.29-5-.22-9.93,2.43-12.71-3.38,2.51-4.92,8-3.46,13.63a9,9,0,0,0,2.7,4.84" transform="translate(-12.24 -12.79)"/><path id="Fill-19" class="cls-1" d="M47.31,43.13a1.08,1.08,0,0,1-1-1.12,1,1,0,0,1,.75-1.2h.06a1.13,1.13,0,0,1,1,1.12,1,1,0,0,1-.74,1.2l-.08,0M40,45.51c.26,3.63,2.75,6.45,5.54,6.3S50.4,48.6,50.14,45s-2.74-6.45-5.54-6.3S39.75,41.9,40,45.53m1.15,2c.78,2.09,2.47,3.52,4.32,3.42s3.33-1.69,3.8-3.85a4.49,4.49,0,0,1-3.83,3.37,4.74,4.74,0,0,1-4.29-2.94m1.48-.28a.66.66,0,0,1,.59.67.63.63,0,0,1-.49.73.66.66,0,0,1-.59-.67.63.63,0,0,1,.49-.73" transform="translate(-12.24 -12.79)"/><path id="Fill-21" class="cls-1" d="M36.41,31.68a9,9,0,0,1,8.13-2.56,12.63,12.63,0,0,0-7.08,3.58,12,12,0,0,0-3.79,6.82,8.39,8.39,0,0,1,2.75-7.84" transform="translate(-12.24 -12.79)"/><path id="Fill-23" class="cls-1" d="M73.08,56.75c-2.72-.13-4.13-.06-5.43.64-2,1-2,3.66,1.17,7.72,1.54,2,4.44,2.23,7.78,1.17,2.61-.84,4.22-3.14,3.7-6.87-.81-5.9-4.15-2.52-7.21-2.66" transform="translate(-12.24 -12.79)"/><path id="Fill-25" class="cls-5" d="M68.88,58.38c1.15-.61,2.39-.67,4.79-.56a13,13,0,0,0,3.21-.62,4.14,4.14,0,0,1,.86-.12A1.86,1.86,0,0,0,76,56.71a15.37,15.37,0,0,1-3.23.62c-2.21-.1-3.35,0-4.41.52-1.3.69-1.57,2.23-.23,4.55-.89-2-.51-3.36.72-4" transform="translate(-12.24 -12.79)"/><path id="Fill-27" class="cls-7" d="M48,30.41a17,17,0,0,1,8.06,6.87c.61,1,1.43,1.77,1.09-.28a23.11,23.11,0,0,0-2.32-7.92c-.46-1-.81-1.15-1,0-.11.53-.21.89-.53.92a26,26,0,0,1-4.48-.66c-2.7-.38-2.79.26-.8,1.12" transform="translate(-12.24 -12.79)"/><path id="Fill-29" class="cls-3" d="M59.24,29.2c.25-.12.51-.23.77-.33a6.18,6.18,0,0,1,7.9,2.72C69.3,34,69.58,40,69.53,43.72c-1.46,0-2.35.12-2.89.14a3.65,3.65,0,0,0-.07-.87,19.54,19.54,0,0,0-3.06-9.6v-.07h0l-.06-.07h0l-.05-.08h0v-.08l0-.06h0L63,32.72h0v-.06h0l-.06-.07h0l0-.06v-.05h0l-.06-.07h0v-.06h0l-.06-.07h0v-.11h0l-.06-.07L62.6,32,62.54,32h0l-.07-.07h0L62,31.51h0v-.06h0l-.06-.07h0l-.07-.07h0l-.07-.07v0h0l-.07-.06h0l-.06-.06h0L61.6,31h0L61.54,31h0L61,30.51l-.06-.05h0l-.07-.06h0l-.06,0h0l-.08-.06h0l-.06-.05h0L60.34,30h-.05L60.23,30h0l-.08-.06h0l-.15-.2h0l-.08-.05h-.08l-.08-.06h0l-.08,0h0l-.08-.05h0Z" transform="translate(-12.24 -12.79)"/><path id="Fill-31" class="cls-4" d="M74,35a18.05,18.05,0,0,1-2.39,11.8c.65,1.48,1.41,2.74,2.3,2.06,2.81-2.12,4.37-4.91,4-8a3.64,3.64,0,0,0-.12-.71C77.14,37,76.38,37,74.33,35.28Z" transform="translate(-12.24 -12.79)"/><path id="Fill-33" class="cls-4" d="M34.94,59.79c-5.61.07-10.85-5.82-12-13.75a20.54,20.54,0,0,1,.22-7.25c-.06.12-.11.25-.17.37-2.3,5.3-7.23,8.63-7,12.79.3,4.72,9.7,8.75,14.32,14.38l.93,1.13a10.85,10.85,0,0,0,1.07,1.18c.49.43.79.41,1.08-.16a.31.31,0,0,1,0-.1,11.19,11.19,0,0,0,.47-1.49l.24-1a.46.46,0,0,1,.07-.29c.1-.46.19-.91.28-1.37l.15-1,.13-1.15c.08-.78.12-1.56.14-2.35" transform="translate(-12.24 -12.79)"/><path id="Fill-35" class="cls-5" d="M61.23,37.87c-1.5.25-2.58,1.68-2.9,3.58a21.31,21.31,0,0,0,3.17,5.88,8,8,0,0,0,1.29-.11,4.15,4.15,0,0,0,3-1.63c-.14-.87-.21-1.71-.26-2.53a24.7,24.7,0,0,0-.38-2.85c-1-1.63-2.48-2.6-4-2.34" transform="translate(-12.24 -12.79)"/><path id="Fill-37" class="cls-1" d="M61.29,37.35a3.81,3.81,0,0,0-2.75,2.47,4.54,4.54,0,0,0-.27,1.46l.06.17c.16-.84.78-3.22,2.91-3.58,1.47-.25,3,.71,3.95,2.34-.09-.44-.19-.87-.31-1.29a3.9,3.9,0,0,0-3.59-1.57" transform="translate(-12.24 -12.79)"/><path id="Fill-39" class="cls-6" d="M65.49,42.16a6.13,6.13,0,0,0-3.14-4.26,4.74,4.74,0,0,1,2.84,2.31q.18,1,.3,1.95m.34,3.44a4.1,4.1,0,0,1-3,1.62,7,7,0,0,1-1.29.12,1.43,1.43,0,0,1-.14-.2,8.58,8.58,0,0,0,.87-.1c1.73-.29,3.21-1,3.43-2.82a9.62,9.62,0,0,0,.17,1.38" transform="translate(-12.24 -12.79)"/><path id="Fill-41" class="cls-1" d="M62.49,42.22a.5.5,0,0,1-.48-.47.46.46,0,0,1,.32-.57h0a.48.48,0,0,1,.47.47.46.46,0,0,1-.32.57h0m-3.2,1.28c.23,1.61,1.42,2.8,2.67,2.65S64,44.57,63.8,43s-1.41-2.8-2.66-2.65-2.07,1.58-1.85,3.19m.58.84a2.1,2.1,0,0,0,2,1.39,2,2,0,0,0,1.58-1.83,2,2,0,0,1-1.61,1.62,2.13,2.13,0,0,1-2-1.18m.65-.17a.3.3,0,0,1,.28.28.28.28,0,0,1-.19.34h0a.3.3,0,0,1-.29-.29.27.27,0,0,1,.19-.33h0" transform="translate(-12.24 -12.79)"/><path id="Fill-43" class="cls-1" d="M62.8,35.91a4,4,0,0,0-3.8.49,5.67,5.67,0,0,1,3.55.12,5.41,5.41,0,0,1,2.83,2,3.79,3.79,0,0,0-2.6-2.66" transform="translate(-12.24 -12.79)"/><path id="Fill-45" class="cls-8" d="M58,67.67a28.77,28.77,0,0,1-6.89-5.28c-.81.07-1.6.18-2.38.31A14.47,14.47,0,0,0,54,67.41a15.65,15.65,0,0,0,8.19,2A23.55,23.55,0,0,1,58,67.68" transform="translate(-12.24 -12.79)"/><path id="Fill-47" class="cls-4" d="M77.86,65.71a6.13,6.13,0,0,1-1,.48c0,.67-.09,1.36-.15,2.08,2.22-.38,3.53-3,3.51-5.75a5,5,0,0,1-2.33,3.19" transform="translate(-12.24 -12.79)"/><path id="Fill-49" class="cls-9" d="M36.51,15.1l-4.08,1a1.78,1.78,0,1,0,.89,3.45l2.31,9-6.7,29.91a2.44,2.44,0,0,0,.53,2.3,2.29,2.29,0,0,0,2.26.66L59.6,54.89a2.22,2.22,0,0,0,1.66-1.65A2.69,2.69,0,0,0,60.63,51L43.78,26.5l-2.3-9A1.79,1.79,0,0,0,40.59,14Zm-4.3-.22,4-1,4.08-1a3,3,0,0,1,2.3.35A3.08,3.08,0,0,1,44,14.93v.22a3,3,0,0,1-1,3l2,7.73L61.59,50.13a4.15,4.15,0,0,1,.89,1.6,3.49,3.49,0,0,1,.05,1.7v.13a3.67,3.67,0,0,1-.93,1.65h0a3.56,3.56,0,0,1-1.65.92L32,62.68A3.6,3.6,0,0,1,27.66,60h0a4.08,4.08,0,0,1,0-1.84l6.63-29.61-2-7.73A3.09,3.09,0,0,1,30,18.72a.79.79,0,0,1-.06-.22,3.07,3.07,0,0,1,.34-2.18h0A3,3,0,0,1,32,14.93Z" transform="translate(-12.24 -12.79)"/><path id="Fill-51" class="cls-1" d="M67,74.81a5.31,5.31,0,0,0-2.11-1.41,15.77,15.77,0,0,1-1.91.39c-.44.07-.91.12-1.39.15a60.31,60.31,0,0,0-.83,9.3c-.13,4.64,0,9.89.22,14.55.78-.24,1.55-.49,2.31-.76,1-.36,2-.75,3-1.19V94.16c0-4.91,0-10.18-1.36-15.6h0A1.27,1.27,0,0,1,65.77,77a1.26,1.26,0,0,1,1.45.68,31,31,0,0,1,2.23,7.9,64.86,64.86,0,0,1,.75,6.51,11.2,11.2,0,0,0,.87-2.64,17.05,17.05,0,0,0-.54-8.27A15.7,15.7,0,0,0,67,74.81m-1.8-3.94A7.55,7.55,0,0,1,68.75,73a18.28,18.28,0,0,1,4.19,7.44,19.74,19.74,0,0,1,.6,9.5A13.15,13.15,0,0,1,70,96.77a2,2,0,0,0-2,1h0c-1.25.58-2.55,1.11-3.9,1.6s-2.66.89-4,1.24a1.27,1.27,0,0,1-1.54-.9h0a1,1,0,0,1,0-.25h0c-.31-5.06-.46-11.06-.31-16.32A53.8,53.8,0,0,1,59.31,72.4a1.27,1.27,0,0,1,1.27-.94,14.85,14.85,0,0,0,2-.17,13.54,13.54,0,0,0,1.89-.41,1.19,1.19,0,0,1,.7,0" transform="translate(-12.24 -12.79)"/><path id="Fill-53" class="cls-1" d="M22.37,62.76A13.93,13.93,0,0,1,20.3,60a41.44,41.44,0,0,1-2.82,6.78C16.2,69.4,15,71.87,14.81,74.34c-.49,6.24,2.08,8.16,5.69,8.44A39.23,39.23,0,0,0,29.21,82c1.42-.24,2.81-.47,4.08-.62h0A1.26,1.26,0,0,1,34,83.7l-1.46.8A24.6,24.6,0,0,1,34,91a35.82,35.82,0,0,1-.07,6.3,44.6,44.6,0,0,0,14.26,2.31H49a89.28,89.28,0,0,0-1.23-11.77A40.37,40.37,0,0,0,45,78.47a44.47,44.47,0,0,0-3.6-6.87,19,19,0,0,0-5-4.87,14.8,14.8,0,0,0-2.35.71,11.69,11.69,0,0,0-1.84,1,10.46,10.46,0,0,1-1.79,5c-1.22,1.87-2.94,3.3-4.55,3.52h0a1.28,1.28,0,0,1-1.42-1.09,1.3,1.3,0,0,1,.45-1.14,11.34,11.34,0,0,0,2.92-4,13,13,0,0,0,1.12-4,15.65,15.65,0,0,1-6.58-3.89m-1.25-7.92A11.74,11.74,0,0,0,24.18,61a13.55,13.55,0,0,0,6.4,3.5,1.25,1.25,0,0,1,.94,1.29v.1a15.44,15.44,0,0,1,1.58-.78,19.13,19.13,0,0,1,3.31-1,1.27,1.27,0,0,1,1,.22,21.94,21.94,0,0,1,6,5.8,47.3,47.3,0,0,1,3.82,7.25,42.08,42.08,0,0,1,2.94,10,95.49,95.49,0,0,1,1.33,13.39,1.27,1.27,0,0,1-1.21,1.3H48.11a47.19,47.19,0,0,1-16-2.79A1.27,1.27,0,0,1,31.28,98h0a35.33,35.33,0,0,0,.17-6.82,21.19,21.19,0,0,0-1.61-6.79h-.21a40.4,40.4,0,0,1-9.31.84c-5.06-.39-8.66-2.94-8-11.16.24-3,1.53-5.62,2.92-8.47,1.55-3.18,3.22-6.6,3.41-10.68a1.26,1.26,0,0,1,2.5-.14" transform="translate(-12.24 -12.79)"/><path id="Fill-55" class="cls-5" d="M19.87,55c1,5.34,4.41,9.13,10.39,10.68a14.08,14.08,0,0,1-4.55,10c2.44-.32,5.46-4.7,5.24-8a13.86,13.86,0,0,1,5.72-2.36c5.27,3.54,6.89,7,9.46,12.57,2.78,6.11,3.87,14.74,4.14,23-.7,0-1.41.05-2.12.05a46.22,46.22,0,0,1-15.62-2.72C33,93.78,33,88.5,31,83.93l2.45-1.34c-8.78,1-21,5.4-19.89-8.37C14,68.25,19.5,63,19.87,55" transform="translate(-12.24 -12.79)"/><path id="Fill-57" class="cls-4" d="M32.46,55.35a3.31,3.31,0,0,1,1.63,1.25,4.49,4.49,0,0,1,.71,1.79h.29A4.65,4.65,0,0,1,37.73,60L59.6,54.89a2.22,2.22,0,0,0,1.66-1.65A2.76,2.76,0,0,0,60.62,51L53.3,40.33a16.82,16.82,0,0,1,1.19,3.22c.95,3.69.41,6.09-1.09,7.73l-.16.11a1.27,1.27,0,0,1-.13.19c-1.29,1.71-3.41,2.71-5.94,3.43C42,56.48,37.11,56.24,35.25,48.82c-1.62-6.45.19-12.74,4.08-15.23a9.26,9.26,0,0,0-2.1,2.27,8.29,8.29,0,0,1,4.45-3.12,8.7,8.7,0,0,1,7.59,1.74L44.83,28a6.09,6.09,0,0,1-1.46-2.64,7.77,7.77,0,0,0-6,1,5.32,5.32,0,0,1,.68,3c-1-1.8-1.21-2.83-2.92-2.66l.48,1.86-1.36,6.07a10,10,0,0,1,2.15-3,9,9,0,0,1,8.12-2.56,12.66,12.66,0,0,0-7.08,3.58,12.07,12.07,0,0,0-3.79,6.82,6.54,6.54,0,0,1-.18-1.39L30.21,52.77a8,8,0,0,1,1,1.63,1.1,1.1,0,0,1,.14.73,3.71,3.71,0,0,1,1.09.22m21-4.08a2.76,2.76,0,0,1-.29.3l.29-.3" transform="translate(-12.24 -12.79)"/><path id="Fill-59" class="cls-5" d="M36.24,29.64,29.73,60l25.05-4.94-17.88.66c-2.15.08-3.36-1.65-3.12-3.79Z" transform="translate(-12.24 -12.79)"/><path id="Fill-61" class="cls-1" d="M29.83,62.25h0M25.92,50.9A8.86,8.86,0,0,0,22.7,54c-.44,1,.1,3,1,5.12,1,2.28,2.51,4.44,3.72,5.08a5.23,5.23,0,0,0,2.47.86,5.07,5.07,0,0,0,2.35-1.14h0l.13-.08c1.14-.58,1.73-1.18,1.83-1.79a2.29,2.29,0,0,0-.5-1.55c-.43.27-.93.56-1.42.81a9.7,9.7,0,0,1-2.48,1,1.15,1.15,0,0,1-.8-2.15h0a8.28,8.28,0,0,0,2.87-2.65,2.14,2.14,0,0,0,.31-.92,1.07,1.07,0,0,0-.18-.65,1.54,1.54,0,0,0-.28-.34,9.44,9.44,0,0,1-2.21,1.3,4.41,4.41,0,0,1-3.11.3h0a1.16,1.16,0,0,1-.67-1.48,1.14,1.14,0,0,1,.48-.58c.74-.44,1.47-.81,2.12-1.15,1.16-.59,2-1,2.08-1.39a2.41,2.41,0,0,0-.27-1.6,2.88,2.88,0,0,0-1-1.26c-.68-.18-1.95.34-3.21,1.13M20.6,53.05a11.21,11.21,0,0,1,4.1-4c1.73-1.08,3.67-1.75,5-1.39A5.06,5.06,0,0,1,32.18,50a4.63,4.63,0,0,1,.46,3.08.45.45,0,0,1-.07.29A4.47,4.47,0,0,1,34,54.71a3.36,3.36,0,0,1,.52,2,3.71,3.71,0,0,1-.22,1.09,1.12,1.12,0,0,1,.62.42,5.21,5.21,0,0,1,1.63,4.16c-.21,1.36-1.17,2.51-3,3.45a6.85,6.85,0,0,1-3.46,1.51,7,7,0,0,1-3.69-1.12c-1.65-.88-3.51-3.48-4.72-6.17s-1.77-5.39-1-7" transform="translate(-12.24 -12.79)"/><path id="Fill-63" class="cls-2" d="M21.65,53.52c1-2.21,5.65-5.41,7.78-4.85a4.2,4.2,0,0,1,2.1,4.17c-.28,1.29-2.31,1.83-4.72,3.28,1.57.59,4.65-1.49,4.85-2,3,1.73,1.68,4.64-2.05,7A12.62,12.62,0,0,0,34,58.91c2.14,2.41,2,4.41-1,5.94-2.44,1.71-3.37,1.75-6,.35s-6.46-9-5.26-11.68" transform="translate(-12.24 -12.79)"/><path id="Fill-65" class="cls-4" d="M28.65,50.23a5.15,5.15,0,0,1,1.16,2.46,4,4,0,0,0,.07.46c0,.16,0,.5,0,.75v.57l.27-.15a4.15,4.15,0,0,0,1.05-.81,1.43,1.43,0,0,0,.34-.67,2.56,2.56,0,0,0,.07-.62,4.32,4.32,0,0,0-2.17-3.55,3.88,3.88,0,0,0-2.18.28l-.14.06.24.13a5,5,0,0,1,.91.68,3.78,3.78,0,0,1,.39.41" transform="translate(-12.24 -12.79)"/><path id="Fill-67" class="cls-4" d="M31.66,54.15a2.29,2.29,0,0,1-.61.59l-.14.1-.29.2.16.21a4.88,4.88,0,0,1,.44.73,5,5,0,0,1,.41,1.12c.05.21.08.42.11.63a6.86,6.86,0,0,1,0,1.81,7,7,0,0,0,.77-.87c1.18-1.54,1.21-3.08-.34-4.21a4.76,4.76,0,0,0-.47-.31" transform="translate(-12.24 -12.79)"/><path id="Fill-69" class="cls-4" d="M34,58.91a4.42,4.42,0,0,1-1,.71l-.28.17a2,2,0,0,0-.25.14,5.69,5.69,0,0,1,.61,1h0a5.33,5.33,0,0,1,.39,1.1,6.24,6.24,0,0,1,.06,2.51,4.26,4.26,0,0,0,1.41-1.26,2.41,2.41,0,0,0,.45-1.49,3.08,3.08,0,0,0-.28-1.12,5.85,5.85,0,0,0-.63-1.08A6.42,6.42,0,0,0,34,59" transform="translate(-12.24 -12.79)"/><path id="Fill-71" class="cls-5" d="M22.18,53.31a18.82,18.82,0,0,0,6.58,11.87c-1-.32-6.68-4.07-6.58-11.87" transform="translate(-12.24 -12.79)"/><path id="Fill-73" class="cls-5" d="M54.14,82.83a19.21,19.21,0,0,1,4.07.43c-.15,5.24,0,11.2.3,16.23h0a.89.89,0,0,0,0,.23,45.85,45.85,0,0,1-7,1.06A95,95,0,0,0,50.2,87.42c-.25-1.37-.54-2.71-.87-4a19.27,19.27,0,0,1,4.78-.6" transform="translate(-12.24 -12.79)"/><path id="Fill-75" class="cls-5" d="M64.83,72.09c5.8,1.18,11.79,16.28,4.25,23.79,0-5.92-1.09-13.69-3-17.64,1.66,6.5,1.36,12.74,1.39,18.41a44.86,44.86,0,0,1-7.71,2.77c-.55-9.22-.59-21.5.77-26.69a16.44,16.44,0,0,0,4.29-.64" transform="translate(-12.24 -12.79)"/><path id="Fill-77" class="cls-1" d="M68.51,66.37A.6.6,0,1,1,69,67.46a.59.59,0,0,1-.76-.31h0a.59.59,0,0,1,.32-.77h0" transform="translate(-12.24 -12.79)"/><path id="Fill-79" class="cls-1" d="M66.63,65.52a.59.59,0,0,1,.76.33.57.57,0,0,1-.3.75h0a.59.59,0,0,1-.76-.31h0a.59.59,0,0,1,.32-.77" transform="translate(-12.24 -12.79)"/><path id="Fill-81" class="cls-1" d="M67.28,67.92a.59.59,0,0,1,.61,1,.61.61,0,0,1-.17.07.58.58,0,0,1-.76-.32h0a.59.59,0,0,1,.31-.76h0" transform="translate(-12.24 -12.79)"/><path id="Fill-83" class="cls-1" d="M65.14,66.9a.59.59,0,0,1,.77.32.59.59,0,0,1-1,.54.42.42,0,0,1,0-.1h0a.59.59,0,0,1,.31-.76h0" transform="translate(-12.24 -12.79)"/><path id="Fill-85" class="cls-1" d="M64.83,64.32a.58.58,0,0,1,.77.31.59.59,0,1,1-1.08.46h0a.59.59,0,0,1,.31-.76h0" transform="translate(-12.24 -12.79)"/><path id="Fill-87" class="cls-6" d="M67.1,83.85c-1.45,5.84-4.11,10.6-7.44,13.37,0,.75.07,1.48.11,2.2a45,45,0,0,0,7.72-2.77,118.9,118.9,0,0,0-.39-12.8m1.19-9.48c4.22,4.75,6.79,15.53.8,21.51a60.87,60.87,0,0,0-1.63-13.65,42.37,42.37,0,0,0,.83-7.86" transform="translate(-12.24 -12.79)"/><path id="Fill-89" class="cls-6" d="M38.44,95.31c-.32-.37-.64-.75-.95-1.15a28.48,28.48,0,0,1-4.6-9.83c-.11-.41-.22-.83-.32-1.26L31,83.93c2,4.58,2,9.86,1.54,14.26,1.06.38,2.14.72,3.23,1l1.22.32a45.67,45.67,0,0,0,11.17,1.36c.71,0,1.43,0,2.13-.05,0-.62,0-1.24-.08-1.87a8.88,8.88,0,0,1-1.24.38,9.59,9.59,0,0,1-2.07.23c-3.12,0-6-1.58-8.45-4.28" transform="translate(-12.24 -12.79)"/><path id="Fill-91" class="cls-6" d="M40.69,68.73a15.2,15.2,0,0,0-4-3.36,18.7,18.7,0,0,0-2.54.69,12.65,12.65,0,0,0-2.84,1.44l-.34.23A4.91,4.91,0,0,1,30.89,69a10,10,0,0,1-2.05,4.52c5-2.25,8.64-4.26,11.85-4.77" transform="translate(-12.24 -12.79)"/><path id="Fill-93" class="cls-6" d="M19.87,55a13.48,13.48,0,0,0,2.22,5.43l-.14.23c-3.76,6-7.06,15.24-4.35,18.93,2.29,3.12,8.63,1.83,15.23,2.88l.61.1c-8.79,1.05-21,5.4-19.89-8.37C14,68.26,19.5,63,19.87,55" transform="translate(-12.24 -12.79)"/><path id="Fill-95" class="cls-1" d="M44.34,76.2a24.77,24.77,0,0,0-7.44-9.52c-.61.89-1.09,1.77-1.59,2.66s-.93,1.67-1.5,2.54l5.58.87a.94.94,0,0,1,.85,1,.79.79,0,0,1-.1.34l-1.87,3.7a16.14,16.14,0,0,1,7.3,5.62,36.78,36.78,0,0,1,2.61,3.82A55.88,55.88,0,0,0,44.34,76.2ZM37.18,64.57c3.72,2.37,6.63,6.21,8.86,10.81,2.62,5.38,4,11.77,5,18.07.08.52,0,1.06-.5,1.14s-.52,0-.69-.36c0,0-5.2-8.88-5.77-9.61C42,82,39.5,79.91,36.72,79.36A.94.94,0,0,1,36,78.25a1.08,1.08,0,0,1,.11-.3l1.78-3.53L32,73.51a1,1,0,0,1-.78-1.08.91.91,0,0,1,.17-.42h0a29.59,29.59,0,0,0,2.25-3.59,31.26,31.26,0,0,1,2.25-3.62,1,1,0,0,1,1.27-.23Z" transform="translate(-12.24 -12.79)"/><path id="Fill-97" class="cls-5" d="M36.67,65.37c7.8,5,11.94,16.84,13.74,28.28-2.95-6.57-7.43-14-13.51-15.22l2.4-4.74-7.13-1.12c1.93-2.58,2.66-4.75,4.5-7.2" transform="translate(-12.24 -12.79)"/><path id="Fill-99" class="cls-1" d="M61.31,73.64a90,90,0,0,0-1,9.26v.24a11.05,11.05,0,0,1,3-4L61.5,77.39a1,1,0,0,1,0-1.34,1.07,1.07,0,0,1,.28-.19L65.33,74l-.1-.22c-.09-.22-.19-.43-.29-.64a14.09,14.09,0,0,1-1.93.41A16,16,0,0,1,61.31,73.64Zm-1.68-1.15h0a1,1,0,0,1,.87-.63,16.51,16.51,0,0,0,2.1-.17,14.15,14.15,0,0,0,1.93-.43h0a.9.9,0,0,1,.46,0l.42.1.4.14h0a.94.94,0,0,1,.51.45c.17.34.34.71.51,1.08l.45,1h0a.94.94,0,0,1-.4,1.27h0L63.64,77l1.71,1.64h0a.94.94,0,0,1,0,1.33h0a.78.78,0,0,1-.2.16,8.53,8.53,0,0,0-3.3,4.08,24.44,24.44,0,0,0-1.74,7.68h0a19.61,19.61,0,0,1-.88,2.72c-.52.09-.91-2.12-1-2.64a52.41,52.41,0,0,1,.11-9.12,75.39,75.39,0,0,1,1.25-10.27Z" transform="translate(-12.24 -12.79)"/><path id="Fill-101" class="cls-5" d="M60.55,72.73h0c-.84,3.17-1.86,16-1.34,19,.42-5,1.82-10.33,5.51-12.5l-2.65-2.54,4.39-2.35c-.34-.65-.62-1.39-1-2a5.16,5.16,0,0,0-.67-.2,16.44,16.44,0,0,1-4.29.64" transform="translate(-12.24 -12.79)"/><path id="Fill-103" class="cls-4" d="M51.39,70.86c-3.62-2-5.88-5.33-7.81-9.38,4.06,5.11,9.72,12.43,20.8,8.92-5.36,1.61-16-3.69-19-10.84l-8.81,2.06a4,4,0,0,1,0,.69L39,63.91l.1.17.55.11a38.56,38.56,0,0,0,11.79,6.67" transform="translate(-12.24 -12.79)"/></svg>