<svg xmlns="http://www.w3.org/2000/svg" width="287.065" height="178.393" viewBox="0 0 287.065 178.393">
  <g id="Group_2" data-name="Group 2" transform="translate(-3133.585 -592.336)">
    <path id="Shape" d="M17.545,140.167h0c-2.594-.5-5.5-2.454-7.98-5.361A18.391,18.391,0,0,1,2.94,136.2a10.039,10.039,0,0,1-2.94-.4c.5-2.6,2.456-5.505,5.362-7.98-1.4-3.552-1.764-7.038-.988-9.564,2.6.5,5.505,2.455,7.981,5.362a18.39,18.39,0,0,1,6.623-1.391,10.03,10.03,0,0,1,2.94.4c-.5,2.6-2.456,5.505-5.362,7.98,1.4,3.55,1.765,7.035.988,9.563Zm254.515-7.853h0c-3.247-2.022-6.163-6.17-8-11.381h-.34c-5.379,0-10.151-1.322-13.091-3.626,2.022-3.248,6.171-6.164,11.381-8-.056-5.526,1.266-10.422,3.625-13.432,3.247,2.022,6.163,6.171,8,11.381h.34c5.379,0,10.15,1.322,13.091,3.627-2.022,3.247-6.17,6.163-11.38,8,.055,5.525-1.266,10.42-3.625,13.43ZM62.8,25.431h0c-2.141-1.551-3.951-4.551-4.966-8.232-3.812-.228-7.124-1.375-9.085-3.147C50.3,11.91,53.3,10.1,56.984,9.085,57.211,5.273,58.359,1.962,60.131,0c2.141,1.55,3.951,4.551,4.966,8.232,3.812.228,7.124,1.375,9.086,3.146-1.551,2.142-4.552,3.952-8.232,4.967-.228,3.811-1.375,7.123-3.146,9.085Z" transform="translate(3133.585 592.336)" fill="#e0e2ff"/>
    <g id="telescope" transform="translate(3171 591)">
      <path id="leg" d="M.009,8.229A7.942,7.942,0,0,1,7.852,0h0a7.865,7.865,0,0,1,7.729,8.223L10.805,85.28a3.918,3.918,0,0,1-3.564,3.35h0a3.871,3.871,0,0,1-3.518-3.353Z" transform="translate(101.028 89.108) rotate(25)" fill="#e6e9ff" stroke="#828ff4" stroke-linecap="round" stroke-miterlimit="10" stroke-width="3"/>
      <path id="leg-2" data-name="leg" d="M-.009,8.23A7.948,7.948,0,0,0-7.859,0h0A7.872,7.872,0,0,0-15.6,8.224l4.79,78.937a3.913,3.913,0,0,0,3.56,3.35h0a3.868,3.868,0,0,0,3.515-3.353Z" transform="translate(110.6 89.105) rotate(-25)" fill="#e6e9ff" stroke="#828ff4" stroke-linecap="round" stroke-miterlimit="10" stroke-width="3"/>
      <ellipse id="Oval" cx="18.675" cy="18.669" rx="18.675" ry="18.669" transform="translate(86.586 69.712)" fill="#fff" stroke="#7e86ee" stroke-linecap="round" stroke-miterlimit="10" stroke-width="3"/>
      <g id="scope" transform="translate(0.198 70.315) rotate(-20)">
        <ellipse id="Oval_Copy" data-name="Oval Copy" cx="18.675" cy="18.669" rx="18.675" ry="18.669" transform="translate(166.594 19.709)" fill="#e6e9ff" stroke="#828ff4" stroke-linecap="round" stroke-miterlimit="10" stroke-width="3"/>
        <path id="Rectangle_Copy_2" data-name="Rectangle Copy 2" d="M6.589,0H18.641a6.589,6.589,0,1,1,0,13.178H6.589A6.589,6.589,0,0,1,6.589,0Z" transform="translate(0 31.943)" fill="#e6e9ff" stroke="#828ff4" stroke-linecap="round" stroke-miterlimit="10" stroke-width="3"/>
        <path id="Rectangle" d="M12.767,3.141,108.241.007a13.2,13.2,0,0,1,13.626,12.76q.007.216.007.433v9.271a13.2,13.2,0,0,1-13.2,13.2q-.217,0-.433-.007L12.767,32.531A13.2,13.2,0,0,1,0,19.338v-3A13.2,13.2,0,0,1,12.767,3.141Z" transform="translate(31 20.696)" fill="#e6e9ff" stroke="#828ff4" stroke-linecap="round" stroke-miterlimit="10" stroke-width="3"/>
        <path id="Rectangle_Copy_2-2" data-name="Rectangle Copy 2" d="M6.589,0H30.761a6.589,6.589,0,0,1,0,13.178H6.589A6.589,6.589,0,0,1,6.589,0Z" transform="translate(62 0)" fill="#fff" stroke="#7e86ee" stroke-linecap="round" stroke-miterlimit="10" stroke-width="3"/>
        <path id="Rectangle_Copy_3" data-name="Rectangle Copy 3" d="M10.77,0a10.77,10.77,0,0,1,10.77,10.77v7.013A10.77,10.77,0,0,1,0,17.782V10.77A10.77,10.77,0,0,1,10.77,0Z" transform="translate(14.461 24.256)" fill="#fff" stroke="#7e86ee" stroke-linecap="round" stroke-miterlimit="10" stroke-width="3"/>
        <path id="Rectangle_Copy" data-name="Rectangle Copy" d="M22.661,1.8l16-1.765A6,6,0,0,1,45.323,6V51.512a6,6,0,0,1-6.658,5.964l-16-1.765A25.452,25.452,0,0,1,0,30.411V27.1A25.452,25.452,0,0,1,22.661,1.8Z" transform="translate(146 9.775)" fill="#fff" stroke="#7e86ee" stroke-linecap="round" stroke-miterlimit="10" stroke-width="3"/>
        <path id="Line" d="M1.648.065V13.874" transform="translate(172.648 52.274)" fill="#fff" stroke="#7e86ee" stroke-linecap="round" stroke-miterlimit="10" stroke-width="3"/>
      </g>
    </g>
  </g>
</svg>
