<svg xmlns="http://www.w3.org/2000/svg" viewBox="0 0 277.23 93.54"><defs><style>.cls-1{fill:#fff;}</style></defs><g id="_YOUR_TEXT_HERE_" data-name="[YOUR TEXT HERE]"><path class="cls-1" d="M14.52,62.49V23a4.19,4.19,0,1,1,8.37,0V59.55H40.64a3.69,3.69,0,1,1,0,7.37H19C16.09,66.92,14.52,65.35,14.52,62.49Z"/><path class="cls-1" d="M49.51,74.29h.36c2.36,0,3.93-.71,4.93-3l1.72-3.94L44.21,37A4.26,4.26,0,0,1,44,35.66a3.67,3.67,0,0,1,3.65-3.72,3.76,3.76,0,0,1,3.5,2.36l9.3,24,9.31-24a3.76,3.76,0,0,1,3.5-2.36A3.69,3.69,0,0,1,77,35.66a4.72,4.72,0,0,1-.28,1.43L62,73.15C59.6,79,55.45,80.88,50.08,81A6.26,6.26,0,0,1,49,80.88a3.3,3.3,0,0,1-3.08-3.3A3.49,3.49,0,0,1,49.51,74.29Z"/><path class="cls-1" d="M102.59,35.3c0,1.72-1.28,3.22-3.86,3.58s-6.37,2.07-7.87,4.5V63.56a3.76,3.76,0,1,1-7.51,0V35.73a3.76,3.76,0,1,1,7.51,0v1.72a15.44,15.44,0,0,1,6.65-5.23,6.11,6.11,0,0,1,2-.43C101.66,31.79,102.59,33.44,102.59,35.3Z"/><path class="cls-1" d="M136.79,44V63.56a3.76,3.76,0,1,1-7.51,0V63.2a14.55,14.55,0,0,1-11.16,4.58c-5.65,0-12-3.79-12-11.45,0-7.94,6.37-11.23,12-11.23,4.65,0,8.66,1.5,11.16,4.44V44.38c0-4-3.29-6.43-8.08-6.43a13.57,13.57,0,0,0-8.09,2.57,3.2,3.2,0,0,1-1.72.5,3,3,0,0,1-3-3,3.06,3.06,0,0,1,1.29-2.43,20.89,20.89,0,0,1,12.73-4.08C130.07,31.51,136.79,34.73,136.79,44Zm-7.51,15V53.83c-1.72-2.36-4.94-3.58-8.23-3.58-4.22,0-7.37,2.43-7.37,6.23s3.15,6.15,7.37,6.15C124.34,62.63,127.56,61.41,129.28,59.05Z"/><path class="cls-1" d="M146.07,19.2h2.15V66.92h-2.15Z"/><path class="cls-1" d="M182.85,62.7a15.23,15.23,0,0,1-11.95,5.08c-6.08,0-12.09-4.15-12.09-11.52s5.94-11.52,12.09-11.52a15.26,15.26,0,0,1,11.95,5.08V42c0-5.58-4.44-8.58-9.73-8.58-4.51,0-7.87,1.57-11.09,5.44l-1.65-1.43c3.37-3.94,6.94-5.94,12.74-5.94,6.8,0,11.88,3.43,11.88,10.44v25h-2.15Zm0-10.73a14,14,0,0,0-11.38-5.3c-6.29,0-10.3,4.23-10.3,9.59s4,9.59,10.3,9.59a14,14,0,0,0,11.38-5.3Z"/><path class="cls-1" d="M197.3,19.2h2.15V38.3a15.13,15.13,0,0,1,12.45-6.79c9.3,0,15.45,7.29,15.45,18.17s-6.15,18.1-15.45,18.1a15.23,15.23,0,0,1-12.45-6.65v5.79H197.3Zm14.6,46.65c8.44,0,13.09-7.08,13.09-16.17s-4.65-16.24-13.09-16.24a15.14,15.14,0,0,0-12.45,7V59A15,15,0,0,0,211.9,65.85Z"/><path class="cls-1" d="M236.51,60.7a13.32,13.32,0,0,0,10.94,5.15c6.37,0,10.24-3.43,10.24-8,0-5.08-5.16-6.44-10.45-7.87-5.72-1.51-11.73-3-11.73-9.3,0-5.08,4.29-9.16,11.73-9.16,5.94,0,9.66,2.36,11.88,5.22l-1.58,1.43c-2-2.86-5.65-4.72-10.3-4.72-6,0-9.59,3.15-9.59,7.23,0,4.5,4.8,5.65,9.88,7,5.93,1.5,12.3,3.14,12.3,10.16,0,5.36-4,9.94-12.38,9.94-5.43,0-9.22-1.57-12.66-5.51Z"/></g></svg>