<svg xmlns="http://www.w3.org/2000/svg" xmlns:xlink="http://www.w3.org/1999/xlink" viewBox="0 0 360.64 118.61"><defs><style>.cls-1{fill:#070404;}.cls-1,.cls-2,.cls-3,.cls-4,.cls-5,.cls-6,.cls-7,.cls-8,.cls-9{fill-rule:evenodd;}.cls-2{fill:#f4dabc;}.cls-3{fill:#e29899;}.cls-4{fill:#dbbb93;}.cls-5{fill:#fff;}.cls-6{fill:#e8e7e9;}.cls-7{fill:#fff9f5;}.cls-8{fill:#e41e26;}.cls-9{fill:url(#linear-gradient);}</style><linearGradient id="linear-gradient" x1="-66.89" y1="84.37" x2="-66.89" y2="83.35" gradientTransform="matrix(34.42, 0, 0, -49.16, 2347.26, 4159.96)" gradientUnits="userSpaceOnUse"><stop offset="0" stop-color="#13c2e9"/><stop offset="0.5" stop-color="#a677b4"/><stop offset="1" stop-color="#f0515a"/></linearGradient></defs><g id="_YOUR_TEXT_HERE_" data-name="[YOUR TEXT HERE]"><path d="M94.65,84.33V44.83a4.19,4.19,0,1,1,8.37,0V81.39h17.74a3.69,3.69,0,1,1,0,7.37H99.08C96.22,88.76,94.65,87.19,94.65,84.33Z"/><path d="M129.64,96.13H130c2.36,0,3.94-.71,4.94-3l1.72-3.94L124.34,58.86a4.26,4.26,0,0,1-.21-1.36,3.67,3.67,0,0,1,3.64-3.72,3.77,3.77,0,0,1,3.51,2.36l9.3,24,9.3-24a3.78,3.78,0,0,1,3.51-2.36,3.69,3.69,0,0,1,3.72,3.72,4.44,4.44,0,0,1-.29,1.43L142.09,95c-2.37,5.86-6.52,7.72-11.88,7.8a5.59,5.59,0,0,1-1.08-.08,3.29,3.29,0,0,1-3.07-3.29A3.48,3.48,0,0,1,129.64,96.13Z"/><path d="M182.72,57.14c0,1.72-1.29,3.22-3.86,3.58s-6.37,2.07-7.87,4.5V85.4a3.76,3.76,0,1,1-7.51,0V57.57a3.76,3.76,0,1,1,7.51,0v1.72a15.38,15.38,0,0,1,6.65-5.23,6.11,6.11,0,0,1,2-.43C181.79,53.63,182.72,55.28,182.72,57.14Z"/><path d="M216.92,65.87V85.4a3.76,3.76,0,1,1-7.51,0V85a14.57,14.57,0,0,1-11.16,4.58c-5.66,0-12-3.79-12-11.45,0-7.94,6.36-11.23,12-11.23,4.65,0,8.65,1.5,11.16,4.44V66.22c0-4-3.29-6.43-8.09-6.43a13.54,13.54,0,0,0-8.08,2.57,3.2,3.2,0,0,1-1.72.5,3,3,0,0,1-3-3,3.11,3.11,0,0,1,1.28-2.44,21,21,0,0,1,12.74-4.07C210.2,53.35,216.92,56.57,216.92,65.87Zm-7.51,15V75.67c-1.72-2.36-4.94-3.58-8.23-3.58-4.22,0-7.37,2.43-7.37,6.23s3.15,6.15,7.37,6.15C204.47,84.47,207.69,83.25,209.41,80.89Z"/><path d="M226.2,41h2.15V88.76H226.2Z"/><path d="M263,84.54a15.24,15.24,0,0,1-12,5.08c-6.08,0-12.09-4.15-12.09-11.52S244.88,66.58,251,66.58a15.27,15.27,0,0,1,12,5.08v-7.8c0-5.58-4.44-8.58-9.73-8.58-4.51,0-7.87,1.57-11.09,5.44l-1.65-1.43c3.36-3.94,6.94-5.94,12.74-5.94,6.79,0,11.87,3.43,11.87,10.44v25H263Zm0-10.73a14,14,0,0,0-11.38-5.3c-6.3,0-10.3,4.23-10.3,9.59s4,9.59,10.3,9.59A14,14,0,0,0,263,82.39Z"/><path d="M277.43,41h2.15v19.1A15.12,15.12,0,0,1,292,53.35c9.31,0,15.46,7.29,15.46,18.17s-6.15,18.1-15.46,18.1A15.26,15.26,0,0,1,279.58,83v5.79h-2.15ZM292,87.69c8.45,0,13.1-7.08,13.1-16.17S300.47,55.28,292,55.28a15.13,15.13,0,0,0-12.44,7V80.82A15,15,0,0,0,292,87.69Z"/><path d="M316.64,82.54a13.32,13.32,0,0,0,10.94,5.15c6.37,0,10.23-3.44,10.23-8,0-5.08-5.15-6.44-10.44-7.87-5.73-1.51-11.74-3-11.74-9.31,0-5.08,4.3-9.15,11.74-9.15,5.94,0,9.66,2.36,11.88,5.22L337.67,60c-2-2.86-5.65-4.72-10.3-4.72-6,0-9.59,3.15-9.59,7.22,0,4.51,4.79,5.66,9.87,7C333.59,71,340,72.66,340,79.68c0,5.36-4,9.94-12.38,9.94-5.43,0-9.23-1.57-12.66-5.51Z"/><path id="Fill-1" class="cls-1" d="M69.89,71a18,18,0,0,1-4.28-.31,1.25,1.25,0,0,1-.85.89,21.44,21.44,0,0,1-2.84.71L64.86,96h0V96a5.88,5.88,0,0,0,.11.75c0,.31.12.68.21,1.08h0a1.27,1.27,0,0,1-.81,1.45,47.31,47.31,0,0,1-27.68,1.45h0l-.12,0a1.25,1.25,0,0,1-.77-1.6c.7-2,1.41-4.05,1.93-5.66a18.92,18.92,0,0,0,.84-3c.06-1.8-1.56-3.76-3.11-5.66-2.85-3.47-5.55-6.76-1.2-10.33a16.18,16.18,0,0,1,3.56-2.27l.59-.23c-.41-.69-.78-1.43-1.14-2.17A17.92,17.92,0,0,0,36,67.38a1.32,1.32,0,0,1-.25-.52l-.22-1c0,.11,0,.22-.08.34h0c-.14.59-.26,1.09-.37,1.47a10.11,10.11,0,0,1-.35,1.06,1.48,1.48,0,0,1-.47.61l-.47.43a1.25,1.25,0,0,1-1.2.38c-.84-.18-1.52-1-2.63-2.36l-.06-.07-.49-.6h0a41.48,41.48,0,0,0-6.87-6c-3.93-3-7.52-5.7-7.73-9.08-.18-2.9,1.58-5.22,3.56-7.84a27.78,27.78,0,0,0,3.52-5.52A20.84,20.84,0,0,1,26,32.1,15.52,15.52,0,0,1,30.45,29a7.83,7.83,0,0,1,2.6-.65c.19,0,1-.13,1.21-.14-.23-.93-.59-2.51,0-2.63a5.13,5.13,0,0,1,2.24-.11,1.28,1.28,0,0,1,.26-.2,10.1,10.1,0,0,1,3.08-1.21,8.5,8.5,0,0,1,3.82.09,1.25,1.25,0,0,1,.93.89l0,.1a4.6,4.6,0,0,0,.75,1.56c.14.2-.34.47-.17.46h0a21.85,21.85,0,0,1,3.69-.43h0l.65,0a21.08,21.08,0,0,1,3.64.06,12.63,12.63,0,0,1,3,.68,15.33,15.33,0,0,1,7.45,5.83A19.89,19.89,0,0,1,66.83,43a22.44,22.44,0,0,0,.57,3.82,35.37,35.37,0,0,0,1.81,5.28h0a1.32,1.32,0,0,1,.09.48,22.72,22.72,0,0,0,5.88,2,7.24,7.24,0,0,1,5.38,4,9.39,9.39,0,0,1,.13,7.68,5.24,5.24,0,0,1-3.75,3.22,1.27,1.27,0,0,1-1-.19c-1.28,1-3.26,1.56-6.08,1.7"/><path id="Fill-3" class="cls-2" d="M30.75,45c-.11-.28-.21-.57-.32-.88-.94-2.79-2.75-10.27.7-13.54-2.14,3.28-.85,9.4.09,12.48-.15.58-.31,1.27-.47,1.93M64.38,70.4C58.93,72,48,66.52,45.17,59.16c1-.3,2.24-.66,3.51-1,4,4.8,12.13,12,21.15,11.6,7-.35,7.94-3.27,5.27-9.45,2.16,2.13,1.83,4.74,1.58,8C81.27,67.48,82,57.1,75,55.8c-6.86-1.27-15.77-6.67-17-15.45A20.17,20.17,0,0,0,68,52.55a26.71,26.71,0,0,1-2.47-9.48c-.47-6.47-3.38-12-9.74-14.46a15.31,15.31,0,0,0-6.16-.67,24.52,24.52,0,0,0-4.19.45c-.52.11-1.84-1.68-2.11-3a7.79,7.79,0,0,0-6,1,5.23,5.23,0,0,1,.68,3c-1.13-2-1.24-3.05-3.53-2.55l.74,2.91a7.22,7.22,0,0,0-4.26.41c-2.88,1.43-5.46,3.16-8,9-2.3,5.3-7.23,8.62-7,12.78.29,4.72,9.69,8.76,14.31,14.39,1.28,1.55,2,2.48,2.47,2.59l.65-.59h0l0,0a17.93,17.93,0,0,0,.68-2.38c.27-1.23.48-2.48.63-3.73l1.1-.27,3,2c1.3,1.79.24,7.64,1.83,9-1.34-.37-3.69.82-5.73,2.49C29.3,80.13,40,85,39.82,90.47c0,1-1.43,5-2.84,9.07a46.24,46.24,0,0,0,27-1.41,13.59,13.59,0,0,1-.33-2L60.66,72.43a22.81,22.81,0,0,1-5.6-.06c-5.9-1.65-9-5.62-11.49-10.89,4.07,5.11,9.73,12.43,20.81,8.92"/><path id="Fill-5" class="cls-3" d="M31.88,43.05a20.68,20.68,0,0,1-.49-12.21,5.21,5.21,0,0,1,3,1.08Z"/><path id="Fill-7" class="cls-1" d="M73.62,36l-2.38-2.33v.07h0c.07.43.14.88.2,1.34.13.94.23,1.91.31,2.85s.14,2.16.18,3.2c0,.3,0,.82,0,1.4,0,1,0,2.16,0,2.36v0l.09.2a12.84,12.84,0,0,0,1.28,2.7c.07.09-.08.3,0,.24a9.56,9.56,0,0,0,3.09-3.67,6.33,6.33,0,0,0,.43-4,4.65,4.65,0,0,0-2.15-3.54c-.26-.2-.55-.42-.93-.73Zm-13-7.73-.55.25a15.89,15.89,0,0,1,4.3,4.31,18.09,18.09,0,0,1,2.21,4.63,23.08,23.08,0,0,1,1,5.46c0,.24,0,.47.05.67L69,43.32a68.41,68.41,0,0,0-.51-7.57A15.72,15.72,0,0,0,67.29,31a5.91,5.91,0,0,0-2.91-2.82,5.12,5.12,0,0,0-3.79.1Zm-3.06-.53A9.82,9.82,0,0,1,58.67,27a8.12,8.12,0,0,1,1.18-.59,7.09,7.09,0,0,1,5.28-.09,29.08,29.08,0,0,1,5.67,4.13L75,34.55c.29.24.59.48.87.69,1.56,1.21,2.27,1.76,2.9,4.72a8.43,8.43,0,0,1-.56,5.26,11.8,11.8,0,0,1-3.72,4.45c-1.12.84-2,.41-2.83-.64a14.79,14.79,0,0,1-1.55-3.17l-.08-.2a1.34,1.34,0,0,1-.07-.27q0-.09,0-.21l-.43.09a23.06,23.06,0,0,1-2.74.47,1,1,0,0,1-1.06-1h0v0c0-.3-.06-.57-.09-.82s0-.63-.06-.88a22.21,22.21,0,0,0-.93-5,16.11,16.11,0,0,0-2-4.12,13.65,13.65,0,0,0-5-4.52,1,1,0,0,1-.41-1.36,1,1,0,0,1,.29-.34Z"/><path id="Fill-9" class="cls-2" d="M69.25,30.33c.12.4.68,2,.78,2.41.17.77.31,1.61.43,2.48.26,1.92.4,4,.48,6a37.54,37.54,0,0,0,0,4.11c.76,1.92,1.72,4.48,2.92,3.58,3-2.28,4.61-5.34,3.89-8.7C77.14,37,76.38,37,74.33,35.28ZM58.13,28.55a9.52,9.52,0,0,1,2.09-1.22c3.2-1.25,6.23-.06,8,3.19C69.62,33.19,70,40,70,44.14c-.29,0-2.4.54-3.3.59-.07-.59-.11-1.17-.16-1.74a19.47,19.47,0,0,0-3.06-9.59A14.67,14.67,0,0,0,58.13,28.55Z"/><path id="Fill-11" class="cls-4" d="M53.42,51.12c-1.24,2-3.51,3.1-6.25,3.89C42,56.47,37.11,56.23,35.25,48.82c-1.62-6.45.19-12.74,4.08-15.23-3.47,2.63-5.06,8.14-3.59,13.76.77,2.91,2.1,4.63,3.79,5.53l-.08-.07c2.29,2,5.49,1.77,8.81.85a11.86,11.86,0,0,0,5.15-2.53"/><path id="Fill-13" class="cls-5" d="M42.3,33.72c5-1.37,10.43,3,12.19,9.83s-1.59,9.22-6.56,10.59-9.68,1.17-11.44-5.63.84-13.42,5.81-14.79"/><path id="Fill-15" class="cls-1" d="M41.68,32.74A9,9,0,0,1,50,35a9.16,9.16,0,0,1,2.4,3.63s-4.07-6.6-10.06-5c-5,1.38-7.57,8-5.81,14.8a9,9,0,0,0,2.71,4.83c-1.69-.89-3-2.61-3.79-5.53-1.8-6.89,1-13.65,6.27-15.08"/><path id="Fill-17" class="cls-6" d="M39.19,53.35c2.28,1.92,5.46,1.7,8.74.79a11.39,11.39,0,0,0,5.47-2.86A13.72,13.72,0,0,1,49,53.21c-5,1.38-9.68,1.18-11.44-5.62-1.29-5-.22-9.93,2.43-12.71-3.38,2.51-4.92,8-3.46,13.63a9,9,0,0,0,2.7,4.84"/><path id="Fill-19" class="cls-1" d="M47.31,43.13a1.08,1.08,0,0,1-1-1.12,1,1,0,0,1,.81-1.21c.5,0,.94.48,1,1.12a1,1,0,0,1-.82,1.22M40,45.51c.26,3.63,2.75,6.45,5.54,6.3S50.4,48.6,50.14,45s-2.74-6.45-5.54-6.3-4.85,3.2-4.59,6.83m1.15,2c.78,2.09,2.47,3.52,4.32,3.42s3.33-1.69,3.8-3.85a4.49,4.49,0,0,1-3.83,3.37,4.74,4.74,0,0,1-4.29-2.94m1.48-.28a.65.65,0,0,1,.59.67.63.63,0,0,1-.49.73.66.66,0,0,1-.59-.67.63.63,0,0,1,.49-.73"/><path id="Fill-21" class="cls-1" d="M36.41,31.68a9,9,0,0,1,8.13-2.56,12.63,12.63,0,0,0-7.08,3.58,12,12,0,0,0-3.79,6.82,8.4,8.4,0,0,1,2.75-7.84"/><path id="Fill-23" class="cls-1" d="M73.08,56.75c-2.72-.13-4.13-.06-5.43.64-2,1-2,3.66,1.17,7.72,1.54,2,4.44,2.23,7.78,1.17,2.61-.84,4.22-3.14,3.7-6.87-.81-5.9-4.15-2.52-7.21-2.66"/><path id="Fill-25" class="cls-5" d="M68.88,58.38c1.15-.61,2.39-.67,4.79-.56a13,13,0,0,0,3.21-.62,4.14,4.14,0,0,1,.86-.12A1.86,1.86,0,0,0,76,56.71a15.49,15.49,0,0,1-3.23.62c-2.21-.1-3.35,0-4.41.52-1.3.69-1.57,2.23-.23,4.55-.89-2-.51-3.36.72-4"/><path id="Fill-27" class="cls-7" d="M48,30.41a17,17,0,0,1,8.06,6.87c.61,1,1.43,1.77,1.09-.28a23.11,23.11,0,0,0-2.32-7.92c-.46-1-.81-1.15-1,0-.11.53-.21.89-.53.92a26,26,0,0,1-4.48-.66c-2.7-.38-2.79.26-.8,1.12"/><path id="Fill-29" class="cls-3" d="M59.24,29.2a7.43,7.43,0,0,1,.77-.33,6.18,6.18,0,0,1,7.9,2.72C69.3,34,69.58,40,69.53,43.72c-1.46,0-2.35.12-2.89.14,0-.29,0-.58-.07-.87a19.54,19.54,0,0,0-3.06-9.6l0-.07,0,0,0,0-.06-.07h0l-.05-.08,0,0,0,0,0-.08-.05-.06h0l0,0,0,0L63,32.72h0l0-.06,0,0,0,0-.06-.07v0l-.05-.06,0-.05v0l-.06-.07v0l-.05,0,0-.06,0,0-.06-.07,0,0,0-.05,0-.06h0l-.06-.07-.06-.07-.06-.06h0l-.07-.07,0,0,0,0L62,31.51h0L62,31.45l0,0,0,0-.06-.07h0l-.07-.07,0,0,0,0-.07-.07,0-.05h0l0,0,0,0-.07-.06h0l-.06-.06,0,0,0,0-.07-.07h0l-.06-.05,0,0,0,0L61,30.51l-.06-.05-.05,0,0,0-.07-.06h0l0,0-.06-.05h0l-.08-.06,0,0,0,0-.06-.05h0L60.34,30l0,0-.05,0-.06-.05h0l-.08-.06,0,0,0,0L60,29.69h0l-.08-.05,0,0,0,0-.08,0h0l-.08-.06,0,0,0,0-.08-.05h0l-.08-.05,0,0,0,0Z"/><path id="Fill-31" class="cls-4" d="M74,35A18.07,18.07,0,0,1,71.61,46.8c.65,1.48,1.41,2.74,2.3,2.06,2.81-2.12,4.37-4.91,4-8,0-.23-.07-.47-.12-.71C77.14,37,76.38,37,74.33,35.28Z"/><path id="Fill-33" class="cls-4" d="M34.94,59.79c-5.61.07-10.85-5.82-12-13.75a20.55,20.55,0,0,1,.22-7.25c-.06.12-.11.25-.17.37-2.3,5.3-7.23,8.63-7,12.79.3,4.72,9.7,8.75,14.32,14.38l.93,1.13a10.85,10.85,0,0,0,1.07,1.18c.49.43.79.41,1.08-.16a.47.47,0,0,1,.05-.1,11.19,11.19,0,0,0,.47-1.49l.24-1c0-.09,0-.19.07-.29.1-.46.19-.91.28-1.37l.15-1,.13-1.15c.08-.78.12-1.56.14-2.35"/><path id="Fill-35" class="cls-5" d="M61.23,37.87c-1.5.25-2.58,1.68-2.9,3.58a21.31,21.31,0,0,0,3.17,5.88,7.83,7.83,0,0,0,1.29-.11,4.16,4.16,0,0,0,3-1.63c-.14-.87-.21-1.71-.26-2.53a24.7,24.7,0,0,0-.38-2.85c-1-1.63-2.48-2.6-4-2.34"/><path id="Fill-37" class="cls-1" d="M61.29,37.35a3.81,3.81,0,0,0-2.75,2.47,4.54,4.54,0,0,0-.27,1.46l.06.17c.16-.84.78-3.22,2.91-3.58,1.47-.25,3,.71,3.95,2.34-.09-.44-.19-.87-.31-1.29a3.9,3.9,0,0,0-3.59-1.57"/><path id="Fill-39" class="cls-6" d="M65.49,42.16a6.11,6.11,0,0,0-3.14-4.26,4.77,4.77,0,0,1,2.84,2.31q.18,1,.3,1.95m.34,3.44a4.12,4.12,0,0,1-3,1.62,6.88,6.88,0,0,1-1.29.12,2.43,2.43,0,0,1-.14-.2,8.58,8.58,0,0,0,.87-.1c1.73-.29,3.21-1,3.43-2.82,0,.45.1.91.17,1.38"/><path id="Fill-41" class="cls-1" d="M62.49,42.22c-.23,0-.44-.18-.48-.47a.46.46,0,0,1,.33-.57.49.49,0,0,1,.47.47.46.46,0,0,1-.32.57m-3.2,1.28c.23,1.61,1.42,2.8,2.67,2.65S64,44.57,63.8,43s-1.41-2.8-2.66-2.65-2.07,1.58-1.85,3.19m.58.84a2.09,2.09,0,0,0,2,1.39,2,2,0,0,0,1.58-1.83,2,2,0,0,1-1.61,1.62,2.13,2.13,0,0,1-2-1.18m.65-.17c.13,0,.26.11.28.28a.28.28,0,0,1-.19.34h0a.31.31,0,0,1-.29-.29.27.27,0,0,1,.2-.33"/><path id="Fill-43" class="cls-1" d="M62.8,35.91A4,4,0,0,0,59,36.4a5.67,5.67,0,0,1,3.55.12,5.42,5.42,0,0,1,2.83,2,3.77,3.77,0,0,0-2.6-2.66"/><path id="Fill-45" class="cls-8" d="M58,67.67a28.77,28.77,0,0,1-6.89-5.28c-.81.07-1.6.18-2.38.31A14.47,14.47,0,0,0,54,67.41a15.64,15.64,0,0,0,8.19,2A23.81,23.81,0,0,1,58,67.68"/><path id="Fill-47" class="cls-4" d="M77.86,65.71a5.37,5.37,0,0,1-1,.48c0,.67-.09,1.36-.15,2.08,2.22-.38,3.53-3,3.51-5.75a5.07,5.07,0,0,1-2.33,3.19"/><path id="Fill-49" class="cls-9" d="M36.51,15.1l-4.08,1a1.78,1.78,0,0,0,.89,3.45l2.31,9-6.7,29.91a2.44,2.44,0,0,0,.53,2.3,2.29,2.29,0,0,0,2.26.66L59.6,54.89a2.2,2.2,0,0,0,1.66-1.65A2.71,2.71,0,0,0,60.63,51L43.78,26.5l-2.3-9a1.79,1.79,0,0,0-.89-3.46Zm-4.3-.22,4-1,4.08-1a3,3,0,0,1,2.3.35A3.07,3.07,0,0,1,44,14.93a1.74,1.74,0,0,1,0,.22,3,3,0,0,1-1,3l2,7.73L61.59,50.13a4.15,4.15,0,0,1,.89,1.6,3.5,3.5,0,0,1,.05,1.7l0,.13a3.62,3.62,0,0,1-.93,1.65h0a3.56,3.56,0,0,1-1.65.92L32,62.68A3.6,3.6,0,0,1,27.66,60a4.23,4.23,0,0,1,0-1.84l6.63-29.61-2-7.73A3.08,3.08,0,0,1,30,18.72a.9.9,0,0,1-.06-.22,3.07,3.07,0,0,1,.34-2.18h0A3,3,0,0,1,32,14.93Z"/><path id="Fill-51" class="cls-1" d="M67,74.81a5.31,5.31,0,0,0-2.11-1.41,15.77,15.77,0,0,1-1.91.39c-.44.07-.91.12-1.39.15a60.42,60.42,0,0,0-.83,9.3c-.13,4.64,0,9.89.22,14.55.78-.24,1.55-.49,2.31-.76,1-.36,2-.75,3-1.19V94.16c0-4.91,0-10.18-1.36-15.6h0A1.27,1.27,0,0,1,65.77,77a1.25,1.25,0,0,1,1.45.68,31,31,0,0,1,2.23,7.9,64.52,64.52,0,0,1,.75,6.51,11.2,11.2,0,0,0,.87-2.64,17.05,17.05,0,0,0-.54-8.27A15.78,15.78,0,0,0,67,74.81m-1.8-3.94A7.57,7.57,0,0,1,68.75,73a18.29,18.29,0,0,1,4.19,7.44,19.74,19.74,0,0,1,.6,9.5A13.18,13.18,0,0,1,70,96.77a2,2,0,0,0-2,1h0c-1.25.58-2.55,1.11-3.9,1.6s-2.66.89-4,1.24a1.27,1.27,0,0,1-1.54-.9h0a1,1,0,0,1,0-.25h0c-.31-5.06-.46-11.06-.31-16.32A54.08,54.08,0,0,1,59.31,72.4a1.27,1.27,0,0,1,1.27-.94,14.71,14.71,0,0,0,2-.17,13.54,13.54,0,0,0,1.89-.41,1.28,1.28,0,0,1,.7,0"/><path id="Fill-53" class="cls-1" d="M22.37,62.76A13.61,13.61,0,0,1,20.3,60a42.18,42.18,0,0,1-2.82,6.78c-1.28,2.62-2.48,5.09-2.67,7.56-.49,6.24,2.08,8.16,5.69,8.44A39.14,39.14,0,0,0,29.21,82c1.42-.24,2.81-.47,4.08-.62h0A1.26,1.26,0,0,1,34,83.7l-1.46.8A24.69,24.69,0,0,1,34,91a35.84,35.84,0,0,1-.07,6.3,44.69,44.69,0,0,0,14.26,2.31H49a89.28,89.28,0,0,0-1.23-11.77A40.08,40.08,0,0,0,45,78.47a44.47,44.47,0,0,0-3.6-6.87,19,19,0,0,0-5-4.87,14.8,14.8,0,0,0-2.35.71,11.53,11.53,0,0,0-1.84,1,10.46,10.46,0,0,1-1.79,5c-1.22,1.87-2.94,3.3-4.55,3.52h0a1.28,1.28,0,0,1-1.42-1.09,1.3,1.3,0,0,1,.45-1.14,11.36,11.36,0,0,0,2.92-4,12.93,12.93,0,0,0,1.12-4,15.54,15.54,0,0,1-6.58-3.89m-1.25-7.92A11.74,11.74,0,0,0,24.18,61a13.5,13.5,0,0,0,6.4,3.5,1.25,1.25,0,0,1,.94,1.29v.1a15.44,15.44,0,0,1,1.58-.78,19.26,19.26,0,0,1,3.31-1,1.26,1.26,0,0,1,1,.22,21.87,21.87,0,0,1,6,5.8,47.3,47.3,0,0,1,3.82,7.25,42.15,42.15,0,0,1,2.94,10,95.34,95.34,0,0,1,1.33,13.39,1.27,1.27,0,0,1-1.21,1.3h0l-1.09,0c-.49,0-.86,0-1.09,0a47.13,47.13,0,0,1-16-2.79,1.27,1.27,0,0,1-.83-1.33h0a35.35,35.35,0,0,0,.17-6.82,21.19,21.19,0,0,0-1.61-6.79v0l-.21,0a40.45,40.45,0,0,1-9.31.84c-5.06-.39-8.66-2.94-8-11.16.24-2.95,1.53-5.62,2.92-8.47,1.55-3.18,3.22-6.6,3.41-10.68a1.26,1.26,0,0,1,2.5-.14"/><path id="Fill-55" class="cls-5" d="M19.87,55c1,5.34,4.41,9.13,10.39,10.68a14.05,14.05,0,0,1-4.55,10c2.44-.32,5.46-4.7,5.24-8a13.86,13.86,0,0,1,5.72-2.36c5.27,3.54,6.89,7,9.46,12.57C48.91,84,50,92.63,50.27,100.85c-.7,0-1.41.05-2.12.05a46.18,46.18,0,0,1-15.62-2.72C33,93.78,33,88.5,31,83.93l2.45-1.34c-8.78,1-21,5.4-19.89-8.37C14,68.25,19.5,63,19.87,55"/><path id="Fill-57" class="cls-4" d="M32.46,55.35a3.31,3.31,0,0,1,1.63,1.25,4.49,4.49,0,0,1,.71,1.79l.29,0A4.67,4.67,0,0,1,37.73,60L59.6,54.89a2.22,2.22,0,0,0,1.66-1.65A2.75,2.75,0,0,0,60.62,51L53.3,40.33a16.82,16.82,0,0,1,1.19,3.22c.95,3.69.41,6.09-1.09,7.73l-.16.11a1.27,1.27,0,0,1-.13.19c-1.29,1.71-3.41,2.71-5.94,3.43C42,56.48,37.11,56.24,35.25,48.82c-1.62-6.45.19-12.74,4.08-15.23a9.26,9.26,0,0,0-2.1,2.27,8.29,8.29,0,0,1,4.45-3.12,8.7,8.7,0,0,1,7.59,1.74L44.83,28a6.09,6.09,0,0,1-1.46-2.64,7.77,7.77,0,0,0-6,1,5.32,5.32,0,0,1,.68,3c-1-1.8-1.21-2.83-2.92-2.66l.48,1.86-1.36,6.07a10,10,0,0,1,2.15-3,9,9,0,0,1,8.12-2.56,12.66,12.66,0,0,0-7.08,3.58,12.07,12.07,0,0,0-3.79,6.82,6.46,6.46,0,0,1-.18-1.39L30.21,52.77a8.27,8.27,0,0,1,1,1.63,1.09,1.09,0,0,1,.14.73,3.71,3.71,0,0,1,1.09.22M53.4,51.27a2.76,2.76,0,0,1-.29.3,4.11,4.11,0,0,0,.29-.3"/><path id="Fill-59" class="cls-5" d="M36.24,29.64,29.73,60l25.05-4.94-17.88.66c-2.15.08-3.36-1.65-3.12-3.79Z"/><path id="Fill-61" class="cls-1" d="M29.83,62.25l-.23,0,.23,0M25.92,50.9A8.92,8.92,0,0,0,22.7,54c-.44,1,.1,3,1,5.12,1,2.28,2.51,4.44,3.72,5.08a5.23,5.23,0,0,0,2.47.86,5.07,5.07,0,0,0,2.35-1.14h0l.13-.08c1.14-.58,1.73-1.18,1.83-1.79a2.29,2.29,0,0,0-.5-1.55c-.43.27-.93.56-1.42.81a9.57,9.57,0,0,1-2.48,1A1.14,1.14,0,0,1,29,60.16a8.38,8.38,0,0,0,2.87-2.65,2.14,2.14,0,0,0,.31-.92,1.07,1.07,0,0,0-.18-.65,1.54,1.54,0,0,0-.28-.34,9.44,9.44,0,0,1-2.21,1.3,4.41,4.41,0,0,1-3.11.3h0a1.16,1.16,0,0,1-.67-1.48,1.14,1.14,0,0,1,.48-.58c.74-.44,1.47-.81,2.12-1.15,1.16-.59,2-1,2.08-1.39A2.43,2.43,0,0,0,30.14,51a2.9,2.9,0,0,0-1-1.26c-.68-.18-1.95.34-3.21,1.13M20.6,53.05A11.25,11.25,0,0,1,24.7,49c1.73-1.08,3.67-1.75,5-1.39A5.1,5.1,0,0,1,32.18,50a4.65,4.65,0,0,1,.46,3.08c0,.1,0,.19-.07.29A4.52,4.52,0,0,1,34,54.71a3.33,3.33,0,0,1,.52,2,3.71,3.71,0,0,1-.22,1.09,1.15,1.15,0,0,1,.62.42,5.21,5.21,0,0,1,1.63,4.16c-.21,1.36-1.17,2.51-3,3.45a6.85,6.85,0,0,1-3.46,1.51,7,7,0,0,1-3.69-1.12c-1.65-.88-3.51-3.48-4.72-6.17s-1.77-5.39-1-7"/><path id="Fill-63" class="cls-2" d="M21.65,53.52c1-2.21,5.65-5.41,7.78-4.85a4.2,4.2,0,0,1,2.1,4.17c-.28,1.29-2.31,1.83-4.72,3.28,1.57.59,4.65-1.49,4.85-2,3,1.73,1.68,4.64-2.05,7A12.68,12.68,0,0,0,34,58.91c2.14,2.41,2,4.41-1,5.94-2.44,1.71-3.37,1.75-6,.35s-6.46-9-5.26-11.68"/><path id="Fill-65" class="cls-4" d="M28.65,50.23a5.15,5.15,0,0,1,1.16,2.46c0,.15.05.3.07.46s0,.5,0,.75,0,.25,0,.38a1.23,1.23,0,0,1,0,.19l.27-.15a4.15,4.15,0,0,0,1.05-.81,1.43,1.43,0,0,0,.34-.67,2.62,2.62,0,0,0,.07-.62,4.32,4.32,0,0,0-2.17-3.55,3.88,3.88,0,0,0-2.18.28l-.14.06.24.13a5,5,0,0,1,.91.68,3.78,3.78,0,0,1,.39.41"/><path id="Fill-67" class="cls-4" d="M31.66,54.15a2.29,2.29,0,0,1-.61.59l-.14.1-.29.2.16.21a4.88,4.88,0,0,1,.44.73,5.35,5.35,0,0,1,.41,1.12c.05.21.08.42.11.63a6.46,6.46,0,0,1,0,1.81,7,7,0,0,0,.77-.87c1.18-1.54,1.21-3.08-.34-4.21a4.76,4.76,0,0,0-.47-.31"/><path id="Fill-69" class="cls-4" d="M34,58.91a4.19,4.19,0,0,1-1,.71l-.28.17a2,2,0,0,0-.25.14,5.37,5.37,0,0,1,.61,1h0a5.33,5.33,0,0,1,.39,1.1,6.16,6.16,0,0,1,.06,2.51,4.26,4.26,0,0,0,1.41-1.26,2.41,2.41,0,0,0,.45-1.49,3.08,3.08,0,0,0-.28-1.12,5.85,5.85,0,0,0-.63-1.08,7.47,7.47,0,0,0-.53-.64"/><path id="Fill-71" class="cls-5" d="M22.18,53.31a18.82,18.82,0,0,0,6.58,11.87c-1-.32-6.68-4.07-6.58-11.87"/><path id="Fill-73" class="cls-5" d="M54.14,82.83a19.27,19.27,0,0,1,4.07.43c-.15,5.24,0,11.2.3,16.23h0a1.57,1.57,0,0,0,0,.23,46.11,46.11,0,0,1-7,1.06,95,95,0,0,0-1.31-13.36c-.25-1.37-.54-2.71-.87-4a19.27,19.27,0,0,1,4.78-.6"/><path id="Fill-75" class="cls-5" d="M64.83,72.09c5.8,1.18,11.79,16.28,4.25,23.79,0-5.92-1.09-13.69-3-17.64,1.66,6.5,1.36,12.74,1.39,18.41a44.86,44.86,0,0,1-7.71,2.77c-.55-9.22-.59-21.5.77-26.69a16.31,16.31,0,0,0,4.29-.64"/><path id="Fill-77" class="cls-1" d="M68.51,66.37A.59.59,0,1,1,69,67.46a.58.58,0,0,1-.76-.32h0a.59.59,0,0,1,.32-.77h0"/><path id="Fill-79" class="cls-1" d="M66.63,65.52a.59.59,0,0,1,.76.33.57.57,0,0,1-.32.76.58.58,0,0,1-.76-.32h0a.59.59,0,0,1,.32-.77"/><path id="Fill-81" class="cls-1" d="M67.28,67.92A.59.59,0,1,1,67.72,69a.58.58,0,0,1-.76-.33h0a.58.58,0,0,1,.32-.76"/><path id="Fill-83" class="cls-1" d="M65.14,66.9a.59.59,0,0,1,.77.32.59.59,0,1,1-1.09.44h0a.58.58,0,0,1,.32-.76h0"/><path id="Fill-85" class="cls-1" d="M64.83,64.32a.59.59,0,1,1-.32.76h0a.58.58,0,0,1,.32-.76"/><path id="Fill-87" class="cls-6" d="M67.1,83.85c-1.45,5.84-4.11,10.6-7.44,13.37,0,.75.07,1.48.11,2.2a45.26,45.26,0,0,0,7.72-2.77,118.9,118.9,0,0,0-.39-12.8m1.19-9.48c4.22,4.75,6.79,15.53.8,21.51a60.94,60.94,0,0,0-1.63-13.65,42.37,42.37,0,0,0,.83-7.86"/><path id="Fill-89" class="cls-6" d="M38.44,95.31c-.32-.37-.64-.75-.95-1.15a28.48,28.48,0,0,1-4.6-9.83c-.11-.41-.22-.83-.32-1.26L31,83.93c2,4.58,2.05,9.86,1.54,14.26,1.06.38,2.14.72,3.23,1l1.22.32a45.78,45.78,0,0,0,11.17,1.36c.71,0,1.43,0,2.13-.05,0-.62-.05-1.24-.08-1.87a9.31,9.31,0,0,1-1.24.38,9.66,9.66,0,0,1-2.07.23c-3.12,0-6-1.58-8.45-4.28"/><path id="Fill-91" class="cls-6" d="M40.69,68.73a15.25,15.25,0,0,0-4-3.36,18.7,18.7,0,0,0-2.54.69,12.86,12.86,0,0,0-2.84,1.44l-.34.23A5.16,5.16,0,0,1,30.89,69a10,10,0,0,1-2.05,4.52c5-2.25,8.64-4.26,11.85-4.77"/><path id="Fill-93" class="cls-6" d="M19.87,55a13.56,13.56,0,0,0,2.22,5.43l-.14.23c-3.76,6-7.06,15.24-4.35,18.93,2.29,3.12,8.63,1.83,15.23,2.88l.61.1c-8.79,1.05-21,5.4-19.89-8.37C14,68.26,19.5,63,19.87,55"/><path id="Fill-95" class="cls-1" d="M44.34,76.2a24.77,24.77,0,0,0-7.44-9.52c-.61.89-1.09,1.77-1.59,2.66s-.93,1.67-1.5,2.54l5.58.87a.94.94,0,0,1,.85,1,.83.83,0,0,1-.1.34l-1.87,3.7a16.14,16.14,0,0,1,7.3,5.62,36.78,36.78,0,0,1,2.61,3.82A56.15,56.15,0,0,0,44.34,76.2ZM37.18,64.57c3.72,2.37,6.63,6.21,8.86,10.81,2.62,5.38,4,11.77,5,18.07.08.52,0,1.06-.5,1.14s-.52,0-.69-.36c0,0-5.2-8.88-5.77-9.61C42,82,39.5,79.91,36.72,79.36A.94.94,0,0,1,36,78.25a1.21,1.21,0,0,1,.11-.3l1.78-3.53L32,73.51a1,1,0,0,1-.78-1.08.91.91,0,0,1,.17-.42h0a29.91,29.91,0,0,0,2.25-3.59,31.26,31.26,0,0,1,2.25-3.62,1,1,0,0,1,1.27-.23Z"/><path id="Fill-97" class="cls-5" d="M36.67,65.37c7.8,5,11.94,16.84,13.74,28.28-2.95-6.57-7.43-14-13.51-15.22l2.4-4.74-7.13-1.12c1.93-2.58,2.66-4.75,4.5-7.2"/><path id="Fill-99" class="cls-1" d="M61.31,73.64a90.13,90.13,0,0,0-1,9.26v.24a11,11,0,0,1,3-4l-1.81-1.75a1,1,0,0,1,0-1.34,1.07,1.07,0,0,1,.28-.19l3.55-1.9-.1-.22c-.09-.22-.19-.43-.29-.64a14.09,14.09,0,0,1-1.93.41A15.84,15.84,0,0,1,61.31,73.64Zm-1.68-1.15v0l0,0a.94.94,0,0,1,.87-.63,16.51,16.51,0,0,0,2.1-.17,14.15,14.15,0,0,0,1.93-.43h0a1,1,0,0,1,.46,0l.42.1.4.14h0a.94.94,0,0,1,.51.45c.17.34.34.71.51,1.08s.29.65.45,1h0a.94.94,0,0,1-.4,1.27l-3.24,1.73,1.71,1.64h0a.94.94,0,0,1,0,1.34.78.78,0,0,1-.2.16,8.53,8.53,0,0,0-3.3,4.08,24.5,24.5,0,0,0-1.74,7.68h0a19.61,19.61,0,0,1-.88,2.72c-.52.09-.91-2.12-1-2.64a52.43,52.43,0,0,1,.11-9.12,75.78,75.78,0,0,1,1.25-10.27Z"/><path id="Fill-101" class="cls-5" d="M60.55,72.73h0c-.84,3.17-1.86,16-1.34,19,.42-5,1.82-10.33,5.51-12.5l-2.65-2.54,4.39-2.35c-.34-.65-.62-1.39-1-2a5.16,5.16,0,0,0-.67-.2,16.31,16.31,0,0,1-4.29.64"/><path id="Fill-103" class="cls-4" d="M51.39,70.86c-3.62-2-5.88-5.33-7.81-9.38,4.06,5.11,9.72,12.43,20.8,8.92-5.36,1.61-16-3.69-19-10.84l-8.81,2.06a3.19,3.19,0,0,1,0,.69L39,63.91l.1.17.55.11a38.44,38.44,0,0,0,11.79,6.67"/></g></svg>