<svg width="939" height="52" viewBox="0 0 939 52" fill="none" xmlns="http://www.w3.org/2000/svg">
<g filter="url(#filter0_bii)">
<path fill-rule="evenodd" clip-rule="evenodd" d="M9.99999 0C4.47715 0 0 4.47715 0 10V52H939V10C939 4.47715 934.523 0 929 0H9.99999Z" fill="white"/>
</g>
<path d="M828.495 27.3969C828.91 27.3969 829.262 27.056 829.262 26.6513V18.3442L829.198 17.0661L829.646 17.556L830.819 18.8234C830.957 18.9725 831.149 19.0471 831.33 19.0471C831.736 19.0471 832.034 18.7702 832.034 18.3868C832.034 18.1738 831.949 18.0247 831.8 17.8862L829.049 15.2556C828.857 15.0639 828.697 15 828.495 15C828.303 15 828.143 15.0639 827.94 15.2556L825.19 17.8862C825.051 18.0247 824.966 18.1738 824.966 18.3868C824.966 18.7702 825.254 19.0471 825.659 19.0471C825.84 19.0471 826.043 18.9725 826.181 18.8234L827.354 17.556L827.802 17.0661L827.738 18.3442V26.6513C827.738 27.056 828.09 27.3969 828.495 27.3969ZM823.719 34H833.281C835.104 34 836 33.1054 836 31.3161V23.1261C836 21.3369 835.104 20.4423 833.281 20.4423H830.989V21.9865H833.26C834.017 21.9865 834.465 22.4019 834.465 23.2007V31.2416C834.465 32.051 834.017 32.4557 833.26 32.4557H823.74C822.972 32.4557 822.535 32.051 822.535 31.2416V23.2007C822.535 22.4019 822.972 21.9865 823.74 21.9865H826.011V20.4423H823.719C821.906 20.4423 821 21.3369 821 23.1261V31.3161C821 33.1054 821.906 34 823.719 34Z" fill="#767676"/>
<path d="M869.017 32.6401C869.489 32.6401 869.875 32.2646 869.875 31.7925V26.3745H875.164C875.626 26.3745 876.023 25.9775 876.023 25.5055C876.023 25.0334 875.626 24.6364 875.164 24.6364H869.875V19.2077C869.875 18.7356 869.489 18.3601 869.017 18.3601C868.545 18.3601 868.148 18.7356 868.148 19.2077V24.6364H862.869C862.397 24.6364 862 25.0334 862 25.5055C862 25.9775 862.397 26.3745 862.869 26.3745H868.148V31.7925C868.148 32.2646 868.545 32.6401 869.017 32.6401Z" fill="#767676"/>
<path d="M903.678 30.2898H904.979V31.5914C904.979 33.3407 905.854 34.205 907.635 34.205H915.819C917.589 34.205 918.474 33.3407 918.474 31.5914V23.3237C918.474 21.5744 917.589 20.7102 915.819 20.7102H914.517V19.4086C914.517 17.6592 913.632 16.795 911.862 16.795H903.678C901.897 16.795 901.022 17.6592 901.022 19.4086V27.6763C901.022 29.4256 901.897 30.2898 903.678 30.2898ZM903.699 28.7904C902.949 28.7904 902.522 28.3843 902.522 27.593V19.4919C902.522 18.7005 902.949 18.2944 903.699 18.2944H911.841C912.591 18.2944 913.018 18.7005 913.018 19.4919V20.7102H907.635C905.854 20.7102 904.979 21.5744 904.979 23.3237V28.7904H903.699ZM907.655 32.7056C906.906 32.7056 906.479 32.2995 906.479 31.5081V23.4071C906.479 22.6157 906.906 22.2096 907.655 22.2096H915.798C916.548 22.2096 916.975 22.6157 916.975 23.4071V31.5081C916.975 32.2995 916.548 32.7056 915.798 32.7056H907.655Z" fill="#767676"/>
<path d="M301 34.5C301.116 34.5 301.328 34.4574 301.561 34.3298C306.316 31.7128 308 30.5213 308 27.3723V20.9681C308 20.0958 307.587 19.8298 306.93 19.5426C306.073 19.1702 302.567 17.9255 301.71 17.6277C301.487 17.5532 301.244 17.5 301 17.5C300.756 17.5 300.502 17.5745 300.29 17.6277C299.433 17.8404 295.927 19.1809 295.07 19.5426C294.413 19.8191 294 20.0958 294 20.9681V27.3723C294 30.5213 295.684 31.7021 300.439 34.3298C300.672 34.4574 300.884 34.5 301 34.5ZM301.286 19.0957C302.631 19.6383 304.887 20.4362 306.274 20.9043C306.454 20.9681 306.486 21.0638 306.486 21.2553V27C306.486 29.5851 305.353 30.266 301.53 32.5638C301.265 32.7234 301.138 32.7553 301.011 32.7553V19.0426C301.085 19.0426 301.18 19.0532 301.286 19.0957Z" fill="#737373"/>
<rect x="326" y="12" width="360" height="28" rx="5" fill="#F2F2F2"/>
<path d="M673.994 21L676.33 23.3362L673.994 25.6724M679 27.6193C679 30.1998 676.908 32.2917 674.328 32.2917C671.747 32.2917 669.655 30.1998 669.655 27.6193C669.655 25.0388 671.747 22.9468 674.328 22.9468C674.874 22.9468 675.496 22.9468 676.274 23.3362" stroke="#767676" stroke-linecap="round" stroke-linejoin="round"/>
<path d="M459.318 33.0011H465.631C466.515 33.0011 466.949 32.5674 466.949 31.6083V26.7544C466.949 25.9037 466.599 25.4617 465.898 25.3783V23.7269C465.898 21.1665 464.18 19.9989 462.479 19.9989C460.769 19.9989 459.059 21.1665 459.059 23.7269V25.4033C458.4 25.5284 458 25.9621 458 26.7544V31.6083C458 32.5674 458.442 33.0011 459.318 33.0011ZM460.435 23.5768C460.435 22.0839 461.386 21.3167 462.479 21.3167C463.563 21.3167 464.522 22.0839 464.522 23.5768V25.3616L460.435 25.3699V23.5768Z" fill="#9E9E9E"/>
<path d="M101.623 33H115.461C117.22 33 118.084 32.1358 118.084 30.4074V20.5926C118.084 18.8642 117.22 18 115.461 18H101.623C99.8745 18 99 18.8642 99 20.5926V30.4074C99 32.1358 99.8745 33 101.623 33ZM101.644 31.5082C100.903 31.5082 100.481 31.1173 100.481 30.3354V20.6646C100.481 19.893 100.903 19.4918 101.644 19.4918H105.224V31.5082H101.644ZM115.44 19.4918C116.181 19.4918 116.603 19.893 116.603 20.6646V30.3354C116.603 31.1173 116.181 31.5082 115.44 31.5082H106.675V19.4918H115.44ZM103.671 22.4753C103.949 22.4753 104.185 22.2284 104.185 21.9609C104.185 21.6934 103.949 21.4671 103.671 21.4671H102.056C101.788 21.4671 101.551 21.6934 101.551 21.9609C101.551 22.2284 101.788 22.4753 102.056 22.4753H103.671ZM103.671 24.5329C103.949 24.5329 104.185 24.2963 104.185 24.0185C104.185 23.751 103.949 23.5247 103.671 23.5247H102.056C101.788 23.5247 101.551 23.751 101.551 24.0185C101.551 24.2963 101.788 24.5329 102.056 24.5329H103.671ZM103.671 26.5905C103.949 26.5905 104.185 26.3539 104.185 26.0864C104.185 25.8189 103.949 25.5926 103.671 25.5926H102.056C101.788 25.5926 101.551 25.8189 101.551 26.0864C101.551 26.3539 101.788 26.5905 102.056 26.5905H103.671Z" fill="#767676"/>
<path d="M153.5 19.5L147 26L153.5 32.5" stroke="#737373" stroke-width="1.5" stroke-linecap="round" stroke-linejoin="round"/>
<path d="M181 32.5L187.5 26L181 19.5" stroke="#BFBFBF" stroke-width="1.5" stroke-linecap="round" stroke-linejoin="round"/>
<path d="M31.5 26C31.5 29.0376 29.0376 31.5 26 31.5C22.9624 31.5 20.5 29.0376 20.5 26C20.5 22.9624 22.9624 20.5 26 20.5C29.0376 20.5 31.5 22.9624 31.5 26Z" fill="#FF5F57" stroke="#E14640"/>
<path d="M51.5 26C51.5 29.0376 49.0376 31.5 46 31.5C42.9624 31.5 40.5 29.0376 40.5 26C40.5 22.9624 42.9624 20.5 46 20.5C49.0376 20.5 51.5 22.9624 51.5 26Z" fill="#FFBD2E" stroke="#DFA123"/>
<path d="M71.5 26C71.5 29.0376 69.0376 31.5 66 31.5C62.9624 31.5 60.5 29.0376 60.5 26C60.5 22.9624 62.9624 20.5 66 20.5C69.0376 20.5 71.5 22.9624 71.5 26Z" fill="#28CA42" stroke="#1DAD2C"/>
<path d="M474.599 30H473.425V20.25H474.599V30ZM478.731 28.2798L480.331 23.1318H481.588L478.826 31.0601C478.399 32.2026 477.72 32.7739 476.789 32.7739L476.567 32.7549L476.129 32.6724V31.7202L476.446 31.7456C476.844 31.7456 477.153 31.6652 477.373 31.5044C477.597 31.3436 477.781 31.0495 477.925 30.6221L478.185 29.9238L475.735 23.1318H477.017L478.731 28.2798ZM485.961 24.1855C485.783 24.1559 485.591 24.1411 485.384 24.1411C484.613 24.1411 484.091 24.4691 483.816 25.125V30H482.641V23.1318H483.784L483.803 23.9253C484.188 23.3117 484.734 23.0049 485.441 23.0049C485.669 23.0049 485.843 23.0345 485.961 23.0938V24.1855ZM491.033 30C490.965 29.8646 490.91 29.6234 490.868 29.2764C490.322 29.8434 489.67 30.127 488.913 30.127C488.236 30.127 487.679 29.9365 487.243 29.5557C486.812 29.1706 486.596 28.6839 486.596 28.0957C486.596 27.3805 486.867 26.8262 487.408 26.4326C487.954 26.0348 488.72 25.8359 489.706 25.8359H490.849V25.2964C490.849 24.8859 490.726 24.5601 490.481 24.3188C490.235 24.0734 489.873 23.9507 489.395 23.9507C488.976 23.9507 488.625 24.0565 488.342 24.2681C488.058 24.4797 487.916 24.7357 487.916 25.0361H486.736C486.736 24.6934 486.856 24.3633 487.097 24.0459C487.343 23.7243 487.673 23.4704 488.088 23.2842C488.507 23.098 488.966 23.0049 489.465 23.0049C490.256 23.0049 490.876 23.2038 491.325 23.6016C491.774 23.9951 492.006 24.5389 492.023 25.2329V28.394C492.023 29.0246 492.104 29.526 492.264 29.8984V30H491.033ZM489.084 29.105C489.452 29.105 489.802 29.0098 490.132 28.8193C490.462 28.6289 490.701 28.3813 490.849 28.0767V26.6675H489.928C488.49 26.6675 487.77 27.0885 487.77 27.9307C487.77 28.2988 487.893 28.5866 488.138 28.7939C488.384 29.0013 488.699 29.105 489.084 29.105ZM495.14 30H493.966V20.25H495.14V30ZM501.265 30C501.198 29.8646 501.143 29.6234 501.1 29.2764C500.554 29.8434 499.903 30.127 499.145 30.127C498.468 30.127 497.912 29.9365 497.476 29.5557C497.044 29.1706 496.828 28.6839 496.828 28.0957C496.828 27.3805 497.099 26.8262 497.641 26.4326C498.187 26.0348 498.953 25.8359 499.939 25.8359H501.081V25.2964C501.081 24.8859 500.959 24.5601 500.713 24.3188C500.468 24.0734 500.106 23.9507 499.628 23.9507C499.209 23.9507 498.858 24.0565 498.574 24.2681C498.29 24.4797 498.149 24.7357 498.149 25.0361H496.968C496.968 24.6934 497.089 24.3633 497.33 24.0459C497.575 23.7243 497.905 23.4704 498.32 23.2842C498.739 23.098 499.198 23.0049 499.698 23.0049C500.489 23.0049 501.109 23.2038 501.557 23.6016C502.006 23.9951 502.239 24.5389 502.256 25.2329V28.394C502.256 29.0246 502.336 29.526 502.497 29.8984V30H501.265ZM499.317 29.105C499.685 29.105 500.034 29.0098 500.364 28.8193C500.694 28.6289 500.933 28.3813 501.081 28.0767V26.6675H500.161C498.722 26.6675 498.003 27.0885 498.003 27.9307C498.003 28.2988 498.125 28.5866 498.371 28.7939C498.616 29.0013 498.932 29.105 499.317 29.105ZM509.911 26.6421C509.911 27.6916 509.67 28.5358 509.187 29.1748C508.705 29.8096 508.057 30.127 507.245 30.127C506.377 30.127 505.707 29.8201 505.233 29.2065L505.176 30H504.096V20.25H505.271V23.8872C505.745 23.299 506.399 23.0049 507.232 23.0049C508.066 23.0049 508.72 23.3201 509.194 23.9507C509.672 24.5812 509.911 25.4445 509.911 26.5405V26.6421ZM508.737 26.5088C508.737 25.709 508.582 25.0911 508.273 24.6553C507.964 24.2194 507.52 24.0015 506.94 24.0015C506.166 24.0015 505.609 24.3612 505.271 25.0806V28.0513C505.63 28.7707 506.191 29.1304 506.953 29.1304C507.516 29.1304 507.954 28.9124 508.267 28.4766C508.58 28.0407 508.737 27.3848 508.737 26.5088ZM515.395 28.1782C515.395 27.8608 515.275 27.6154 515.033 27.4419C514.796 27.2642 514.38 27.1118 513.783 26.9849C513.191 26.8579 512.719 26.7056 512.367 26.5278C512.02 26.3501 511.762 26.1385 511.593 25.8931C511.428 25.6476 511.345 25.3556 511.345 25.0171C511.345 24.4543 511.582 23.9782 512.056 23.5889C512.535 23.1995 513.144 23.0049 513.885 23.0049C514.663 23.0049 515.294 23.2059 515.776 23.6079C516.263 24.0099 516.506 24.5241 516.506 25.1504H515.325C515.325 24.8288 515.188 24.5516 514.913 24.3188C514.642 24.0861 514.299 23.9697 513.885 23.9697C513.457 23.9697 513.123 24.0628 512.882 24.249C512.64 24.4352 512.52 24.6785 512.52 24.979C512.52 25.2625 512.632 25.4762 512.856 25.6201C513.08 25.764 513.485 25.9015 514.069 26.0327C514.657 26.1639 515.133 26.3205 515.497 26.5024C515.861 26.6844 516.129 26.9045 516.303 27.1626C516.481 27.4165 516.57 27.7275 516.57 28.0957C516.57 28.7093 516.324 29.2023 515.833 29.5747C515.342 29.9429 514.705 30.127 513.923 30.127C513.372 30.127 512.886 30.0296 512.463 29.835C512.039 29.6403 511.707 29.3695 511.466 29.0225C511.229 28.6712 511.111 28.2925 511.111 27.8862H512.285C512.306 28.2798 512.463 28.5929 512.755 28.8257C513.051 29.0542 513.44 29.1685 513.923 29.1685C514.367 29.1685 514.722 29.0796 514.989 28.9019C515.26 28.7199 515.395 28.4787 515.395 28.1782ZM518.125 29.3843C518.125 29.1812 518.184 29.0119 518.302 28.8765C518.425 28.741 518.607 28.6733 518.848 28.6733C519.09 28.6733 519.272 28.741 519.394 28.8765C519.521 29.0119 519.585 29.1812 519.585 29.3843C519.585 29.5789 519.521 29.7419 519.394 29.873C519.272 30.0042 519.09 30.0698 518.848 30.0698C518.607 30.0698 518.425 30.0042 518.302 29.873C518.184 29.7419 518.125 29.5789 518.125 29.3843ZM522.803 30H521.629V23.1318H522.803V30ZM521.533 21.3101C521.533 21.1196 521.591 20.9588 521.705 20.8276C521.823 20.6965 521.997 20.6309 522.225 20.6309C522.454 20.6309 522.627 20.6965 522.746 20.8276C522.864 20.9588 522.924 21.1196 522.924 21.3101C522.924 21.5005 522.864 21.6592 522.746 21.7861C522.627 21.9131 522.454 21.9766 522.225 21.9766C521.997 21.9766 521.823 21.9131 521.705 21.7861C521.591 21.6592 521.533 21.5005 521.533 21.3101ZM473.012 41.5024C473.012 40.8296 473.143 40.2244 473.406 39.687C473.672 39.1496 474.04 38.7349 474.51 38.4429C474.984 38.1509 475.524 38.0049 476.129 38.0049C477.064 38.0049 477.819 38.3286 478.395 38.9761C478.975 39.6235 479.264 40.4847 479.264 41.5596V41.6421C479.264 42.3107 479.135 42.9116 478.877 43.4448C478.623 43.9738 478.257 44.3864 477.779 44.6826C477.305 44.9788 476.759 45.127 476.141 45.127C475.21 45.127 474.455 44.8032 473.875 44.1558C473.3 43.5083 473.012 42.6514 473.012 41.585V41.5024ZM474.193 41.6421C474.193 42.4038 474.368 43.0153 474.719 43.4766C475.075 43.9378 475.549 44.1685 476.141 44.1685C476.738 44.1685 477.212 43.9357 477.563 43.4702C477.914 43.0005 478.09 42.3446 478.09 41.5024C478.09 40.7492 477.91 40.1398 477.551 39.6743C477.195 39.2046 476.721 38.9697 476.129 38.9697C475.549 38.9697 475.081 39.2004 474.726 39.6616C474.37 40.1229 474.193 40.783 474.193 41.6421Z" fill="#4C4C4C"/>
<defs>
<filter id="filter0_bii" x="-67.957" y="-67.957" width="1074.91" height="187.914" filterUnits="userSpaceOnUse" color-interpolation-filters="sRGB">
<feFlood flood-opacity="0" result="BackgroundImageFix"/>
<feGaussianBlur in="BackgroundImage" stdDeviation="33.9785"/>
<feComposite in2="SourceAlpha" operator="in" result="effect1_backgroundBlur"/>
<feBlend mode="normal" in="SourceGraphic" in2="effect1_backgroundBlur" result="shape"/>
<feColorMatrix in="SourceAlpha" type="matrix" values="0 0 0 0 0 0 0 0 0 0 0 0 0 0 0 0 0 0 127 0" result="hardAlpha"/>
<feOffset dy="1"/>
<feComposite in2="hardAlpha" operator="arithmetic" k2="-1" k3="1"/>
<feColorMatrix type="matrix" values="0 0 0 0 1 0 0 0 0 1 0 0 0 0 1 0 0 0 0.2 0"/>
<feBlend mode="normal" in2="shape" result="effect2_innerShadow"/>
<feColorMatrix in="SourceAlpha" type="matrix" values="0 0 0 0 0 0 0 0 0 0 0 0 0 0 0 0 0 0 127 0" result="hardAlpha"/>
<feOffset dy="-1"/>
<feComposite in2="hardAlpha" operator="arithmetic" k2="-1" k3="1"/>
<feColorMatrix type="matrix" values="0 0 0 0 0 0 0 0 0 0 0 0 0 0 0 0 0 0 0.1 0"/>
<feBlend mode="normal" in2="effect2_innerShadow" result="effect3_innerShadow"/>
</filter>
</defs>
</svg>
