<svg width="1941" height="52" viewBox="0 0 1941 52" fill="none" xmlns="http://www.w3.org/2000/svg">
<g filter="url(#filter0_bii)">
<path fill-rule="evenodd" clip-rule="evenodd" d="M10 0C4.47716 0 0 4.47715 0 10V52H1941V10C1941 4.47715 1936.52 0 1931 0H10Z" fill="#202124"/>
</g>
<path d="M1830.49 27.3969C1830.91 27.3969 1831.26 27.056 1831.26 26.6513V18.3442L1831.2 17.0661L1831.65 17.556L1832.82 18.8234C1832.96 18.9725 1833.15 19.0471 1833.33 19.0471C1833.74 19.0471 1834.03 18.7702 1834.03 18.3868C1834.03 18.1738 1833.95 18.0247 1833.8 17.8862L1831.05 15.2556C1830.86 15.0639 1830.7 15 1830.49 15C1830.3 15 1830.14 15.0639 1829.94 15.2556L1827.19 17.8862C1827.05 18.0247 1826.97 18.1738 1826.97 18.3868C1826.97 18.7702 1827.25 19.0471 1827.66 19.0471C1827.84 19.0471 1828.04 18.9725 1828.18 18.8234L1829.35 17.556L1829.8 17.0661L1829.74 18.3442V26.6513C1829.74 27.056 1830.09 27.3969 1830.49 27.3969ZM1825.72 34H1835.28C1837.1 34 1838 33.1054 1838 31.3161V23.1261C1838 21.3369 1837.1 20.4423 1835.28 20.4423H1832.99V21.9865H1835.26C1836.02 21.9865 1836.46 22.4019 1836.46 23.2007V31.2416C1836.46 32.051 1836.02 32.4557 1835.26 32.4557H1825.74C1824.97 32.4557 1824.54 32.051 1824.54 31.2416V23.2007C1824.54 22.4019 1824.97 21.9865 1825.74 21.9865H1828.01V20.4423H1825.72C1823.91 20.4423 1823 21.3369 1823 23.1261V31.3161C1823 33.1054 1823.91 34 1825.72 34Z" fill="#767676"/>
<path d="M1871.02 32.6401C1871.49 32.6401 1871.87 32.2646 1871.87 31.7925V26.3745H1877.16C1877.63 26.3745 1878.02 25.9775 1878.02 25.5055C1878.02 25.0334 1877.63 24.6364 1877.16 24.6364H1871.87V19.2077C1871.87 18.7356 1871.49 18.3601 1871.02 18.3601C1870.54 18.3601 1870.15 18.7356 1870.15 19.2077V24.6364H1864.87C1864.4 24.6364 1864 25.0334 1864 25.5055C1864 25.9775 1864.4 26.3745 1864.87 26.3745H1870.15V31.7925C1870.15 32.2646 1870.54 32.6401 1871.02 32.6401Z" fill="#767676"/>
<path d="M1905.68 30.2898H1906.98V31.5914C1906.98 33.3407 1907.85 34.205 1909.63 34.205H1917.82C1919.59 34.205 1920.47 33.3407 1920.47 31.5914V23.3237C1920.47 21.5744 1919.59 20.7102 1917.82 20.7102H1916.52V19.4086C1916.52 17.6592 1915.63 16.795 1913.86 16.795H1905.68C1903.9 16.795 1903.02 17.6592 1903.02 19.4086V27.6763C1903.02 29.4256 1903.9 30.2898 1905.68 30.2898ZM1905.7 28.7904C1904.95 28.7904 1904.52 28.3843 1904.52 27.593V19.4919C1904.52 18.7005 1904.95 18.2944 1905.7 18.2944H1913.84C1914.59 18.2944 1915.02 18.7005 1915.02 19.4919V20.7102H1909.63C1907.85 20.7102 1906.98 21.5744 1906.98 23.3237V28.7904H1905.7ZM1909.66 32.7056C1908.91 32.7056 1908.48 32.2995 1908.48 31.5081V23.4071C1908.48 22.6157 1908.91 22.2096 1909.66 22.2096H1917.8C1918.55 22.2096 1918.97 22.6157 1918.97 23.4071V31.5081C1918.97 32.2995 1918.55 32.7056 1917.8 32.7056H1909.66Z" fill="#767676"/>
<path d="M802 34.5C802.116 34.5 802.328 34.4574 802.561 34.3298C807.316 31.7128 809 30.5213 809 27.3723V20.9681C809 20.0958 808.587 19.8298 807.93 19.5426C807.073 19.1702 803.567 17.9255 802.71 17.6277C802.487 17.5532 802.244 17.5 802 17.5C801.756 17.5 801.502 17.5745 801.29 17.6277C800.433 17.8404 796.927 19.1809 796.07 19.5426C795.413 19.8191 795 20.0958 795 20.9681V27.3723C795 30.5213 796.684 31.7021 801.439 34.3298C801.672 34.4574 801.884 34.5 802 34.5ZM802.286 19.0957C803.631 19.6383 805.887 20.4362 807.274 20.9043C807.454 20.9681 807.486 21.0638 807.486 21.2553V27C807.486 29.5851 806.352 30.266 802.53 32.5638C802.265 32.7234 802.138 32.7553 802.011 32.7553V19.0426C802.085 19.0426 802.18 19.0532 802.286 19.0957Z" fill="#737373"/>
<rect x="827" y="12" width="360" height="28" rx="5" fill="#474A4D"/>
<path d="M1174.99 21L1177.33 23.3362L1174.99 25.6724M1180 27.6193C1180 30.1998 1177.91 32.2917 1175.33 32.2917C1172.75 32.2917 1170.66 30.1998 1170.66 27.6193C1170.66 25.0388 1172.75 22.9468 1175.33 22.9468C1175.87 22.9468 1176.5 22.9468 1177.27 23.3362" stroke="#737373" stroke-linecap="round" stroke-linejoin="round"/>
<path d="M960.318 33.0011H966.631C967.515 33.0011 967.949 32.5674 967.949 31.6083V26.7544C967.949 25.9037 967.599 25.4617 966.898 25.3783V23.7269C966.898 21.1665 965.18 19.9989 963.479 19.9989C961.769 19.9989 960.059 21.1665 960.059 23.7269V25.4033C959.4 25.5284 959 25.9621 959 26.7544V31.6083C959 32.5674 959.442 33.0011 960.318 33.0011ZM961.435 23.5768C961.435 22.0839 962.386 21.3166 963.479 21.3166C964.563 21.3166 965.522 22.0839 965.522 23.5768V25.3616L961.435 25.3699V23.5768Z" fill="#9E9E9E"/>
<path d="M101.623 33H115.461C117.22 33 118.084 32.1358 118.084 30.4074V20.5926C118.084 18.8642 117.22 18 115.461 18H101.623C99.8745 18 99 18.8642 99 20.5926V30.4074C99 32.1358 99.8745 33 101.623 33ZM101.644 31.5082C100.903 31.5082 100.481 31.1173 100.481 30.3354V20.6646C100.481 19.893 100.903 19.4918 101.644 19.4918H105.224V31.5082H101.644ZM115.44 19.4918C116.181 19.4918 116.603 19.893 116.603 20.6646V30.3354C116.603 31.1173 116.181 31.5082 115.44 31.5082H106.675V19.4918H115.44ZM103.671 22.4753C103.949 22.4753 104.185 22.2284 104.185 21.9609C104.185 21.6934 103.949 21.4671 103.671 21.4671H102.056C101.788 21.4671 101.551 21.6934 101.551 21.9609C101.551 22.2284 101.788 22.4753 102.056 22.4753H103.671ZM103.671 24.5329C103.949 24.5329 104.185 24.2963 104.185 24.0185C104.185 23.751 103.949 23.5247 103.671 23.5247H102.056C101.788 23.5247 101.551 23.751 101.551 24.0185C101.551 24.2963 101.788 24.5329 102.056 24.5329H103.671ZM103.671 26.5905C103.949 26.5905 104.185 26.3539 104.185 26.0864C104.185 25.8189 103.949 25.5926 103.671 25.5926H102.056C101.788 25.5926 101.551 25.8189 101.551 26.0864C101.551 26.3539 101.788 26.5905 102.056 26.5905H103.671Z" fill="#737373"/>
<path d="M153.5 19.5L147 26L153.5 32.5" stroke="#737373" stroke-width="1.5" stroke-linecap="round" stroke-linejoin="round"/>
<path opacity="0.3" d="M181 32.5L187.5 26L181 19.5" stroke="#BFBFBF" stroke-width="1.5" stroke-linecap="round" stroke-linejoin="round"/>
<path d="M31.5 26C31.5 29.0376 29.0376 31.5 26 31.5C22.9624 31.5 20.5 29.0376 20.5 26C20.5 22.9624 22.9624 20.5 26 20.5C29.0376 20.5 31.5 22.9624 31.5 26Z" fill="#FF5F57" stroke="#E14640"/>
<path d="M51.5 26C51.5 29.0376 49.0376 31.5 46 31.5C42.9624 31.5 40.5 29.0376 40.5 26C40.5 22.9624 42.9624 20.5 46 20.5C49.0376 20.5 51.5 22.9624 51.5 26Z" fill="#FFBD2E" stroke="#DFA123"/>
<path d="M71.5 26C71.5 29.0376 69.0376 31.5 66 31.5C62.9624 31.5 60.5 29.0376 60.5 26C60.5 22.9624 62.9624 20.5 66 20.5C69.0376 20.5 71.5 22.9624 71.5 26Z" fill="#28CA42" stroke="#1DAD2C"/>
<defs>
<filter id="filter0_bii" x="-67.957" y="-67.957" width="2076.91" height="187.914" filterUnits="userSpaceOnUse" color-interpolation-filters="sRGB">
<feFlood flood-opacity="0" result="BackgroundImageFix"/>
<feGaussianBlur in="BackgroundImage" stdDeviation="33.9785"/>
<feComposite in2="SourceAlpha" operator="in" result="effect1_backgroundBlur"/>
<feBlend mode="normal" in="SourceGraphic" in2="effect1_backgroundBlur" result="shape"/>
<feColorMatrix in="SourceAlpha" type="matrix" values="0 0 0 0 0 0 0 0 0 0 0 0 0 0 0 0 0 0 127 0" result="hardAlpha"/>
<feOffset dy="1"/>
<feComposite in2="hardAlpha" operator="arithmetic" k2="-1" k3="1"/>
<feColorMatrix type="matrix" values="0 0 0 0 1 0 0 0 0 1 0 0 0 0 1 0 0 0 0.2 0"/>
<feBlend mode="normal" in2="shape" result="effect2_innerShadow"/>
<feColorMatrix in="SourceAlpha" type="matrix" values="0 0 0 0 0 0 0 0 0 0 0 0 0 0 0 0 0 0 127 0" result="hardAlpha"/>
<feOffset dy="-1"/>
<feComposite in2="hardAlpha" operator="arithmetic" k2="-1" k3="1"/>
<feColorMatrix type="matrix" values="0 0 0 0 0 0 0 0 0 0 0 0 0 0 0 0 0 0 0.1 0"/>
<feBlend mode="normal" in2="effect2_innerShadow" result="effect3_innerShadow"/>
</filter>
</defs>
</svg>
