<svg width="939" height="52" viewBox="0 0 939 52" fill="none" xmlns="http://www.w3.org/2000/svg">
<g filter="url(#filter0_bii)">
<path fill-rule="evenodd" clip-rule="evenodd" d="M9.99999 0C4.47715 0 0 4.47715 0 10V52H939V10C939 4.47715 934.523 0 929 0H9.99999Z" fill="#202124"/>
</g>
<path d="M828.495 27.3969C828.91 27.3969 829.262 27.056 829.262 26.6513V18.3442L829.198 17.0661L829.646 17.556L830.819 18.8234C830.957 18.9725 831.149 19.0471 831.33 19.0471C831.736 19.0471 832.034 18.7702 832.034 18.3868C832.034 18.1738 831.949 18.0247 831.8 17.8862L829.049 15.2556C828.857 15.0639 828.697 15 828.495 15C828.303 15 828.143 15.0639 827.94 15.2556L825.19 17.8862C825.051 18.0247 824.966 18.1738 824.966 18.3868C824.966 18.7702 825.254 19.0471 825.659 19.0471C825.84 19.0471 826.043 18.9725 826.181 18.8234L827.354 17.556L827.802 17.0661L827.738 18.3442V26.6513C827.738 27.056 828.09 27.3969 828.495 27.3969ZM823.719 34H833.281C835.104 34 836 33.1054 836 31.3161V23.1261C836 21.3369 835.104 20.4423 833.281 20.4423H830.989V21.9865H833.26C834.017 21.9865 834.465 22.4019 834.465 23.2007V31.2416C834.465 32.051 834.017 32.4557 833.26 32.4557H823.74C822.972 32.4557 822.535 32.051 822.535 31.2416V23.2007C822.535 22.4019 822.972 21.9865 823.74 21.9865H826.011V20.4423H823.719C821.906 20.4423 821 21.3369 821 23.1261V31.3161C821 33.1054 821.906 34 823.719 34Z" fill="#767676"/>
<path d="M869.017 32.6401C869.489 32.6401 869.875 32.2646 869.875 31.7925V26.3745H875.164C875.626 26.3745 876.023 25.9775 876.023 25.5055C876.023 25.0334 875.626 24.6364 875.164 24.6364H869.875V19.2077C869.875 18.7356 869.489 18.3601 869.017 18.3601C868.545 18.3601 868.148 18.7356 868.148 19.2077V24.6364H862.869C862.397 24.6364 862 25.0334 862 25.5055C862 25.9775 862.397 26.3745 862.869 26.3745H868.148V31.7925C868.148 32.2646 868.545 32.6401 869.017 32.6401Z" fill="#767676"/>
<path d="M903.678 30.2898H904.979V31.5914C904.979 33.3407 905.854 34.205 907.635 34.205H915.819C917.589 34.205 918.474 33.3407 918.474 31.5914V23.3237C918.474 21.5744 917.589 20.7102 915.819 20.7102H914.517V19.4086C914.517 17.6592 913.632 16.795 911.862 16.795H903.678C901.897 16.795 901.022 17.6592 901.022 19.4086V27.6763C901.022 29.4256 901.897 30.2898 903.678 30.2898ZM903.699 28.7904C902.949 28.7904 902.522 28.3843 902.522 27.593V19.4919C902.522 18.7005 902.949 18.2944 903.699 18.2944H911.841C912.591 18.2944 913.018 18.7005 913.018 19.4919V20.7102H907.635C905.854 20.7102 904.979 21.5744 904.979 23.3237V28.7904H903.699ZM907.655 32.7056C906.906 32.7056 906.479 32.2995 906.479 31.5081V23.4071C906.479 22.6157 906.906 22.2096 907.655 22.2096H915.798C916.548 22.2096 916.975 22.6157 916.975 23.4071V31.5081C916.975 32.2995 916.548 32.7056 915.798 32.7056H907.655Z" fill="#767676"/>
<path d="M301 34.5C301.116 34.5 301.328 34.4574 301.561 34.3298C306.316 31.7128 308 30.5213 308 27.3723V20.9681C308 20.0958 307.587 19.8298 306.93 19.5426C306.073 19.1702 302.567 17.9255 301.71 17.6277C301.487 17.5532 301.244 17.5 301 17.5C300.756 17.5 300.502 17.5745 300.29 17.6277C299.433 17.8404 295.927 19.1809 295.07 19.5426C294.413 19.8191 294 20.0958 294 20.9681V27.3723C294 30.5213 295.684 31.7021 300.439 34.3298C300.672 34.4574 300.884 34.5 301 34.5ZM301.286 19.0957C302.631 19.6383 304.887 20.4362 306.274 20.9043C306.454 20.9681 306.486 21.0638 306.486 21.2553V27C306.486 29.5851 305.353 30.266 301.53 32.5638C301.265 32.7234 301.138 32.7553 301.011 32.7553V19.0426C301.085 19.0426 301.18 19.0532 301.286 19.0957Z" fill="#737373"/>
<rect x="326" y="12" width="360" height="28" rx="5" fill="#474A4D"/>
<path d="M673.994 21L676.33 23.3362L673.994 25.6724M679 27.6193C679 30.1998 676.908 32.2917 674.328 32.2917C671.747 32.2917 669.655 30.1998 669.655 27.6193C669.655 25.0388 671.747 22.9468 674.328 22.9468C674.874 22.9468 675.496 22.9468 676.274 23.3362" stroke="#737373" stroke-linecap="round" stroke-linejoin="round"/>
<path d="M459.318 33.0011H465.631C466.515 33.0011 466.949 32.5674 466.949 31.6083V26.7544C466.949 25.9037 466.599 25.4617 465.898 25.3783V23.7269C465.898 21.1665 464.18 19.9989 462.479 19.9989C460.769 19.9989 459.059 21.1665 459.059 23.7269V25.4033C458.4 25.5284 458 25.9621 458 26.7544V31.6083C458 32.5674 458.442 33.0011 459.318 33.0011ZM460.435 23.5768C460.435 22.0839 461.386 21.3166 462.479 21.3166C463.563 21.3166 464.522 22.0839 464.522 23.5768V25.3616L460.435 25.3699V23.5768Z" fill="#9E9E9E"/>
<path d="M101.623 33H115.461C117.22 33 118.084 32.1358 118.084 30.4074V20.5926C118.084 18.8642 117.22 18 115.461 18H101.623C99.8745 18 99 18.8642 99 20.5926V30.4074C99 32.1358 99.8745 33 101.623 33ZM101.644 31.5082C100.903 31.5082 100.481 31.1173 100.481 30.3354V20.6646C100.481 19.893 100.903 19.4918 101.644 19.4918H105.224V31.5082H101.644ZM115.44 19.4918C116.181 19.4918 116.603 19.893 116.603 20.6646V30.3354C116.603 31.1173 116.181 31.5082 115.44 31.5082H106.675V19.4918H115.44ZM103.671 22.4753C103.949 22.4753 104.185 22.2284 104.185 21.9609C104.185 21.6934 103.949 21.4671 103.671 21.4671H102.056C101.788 21.4671 101.551 21.6934 101.551 21.9609C101.551 22.2284 101.788 22.4753 102.056 22.4753H103.671ZM103.671 24.5329C103.949 24.5329 104.185 24.2963 104.185 24.0185C104.185 23.751 103.949 23.5247 103.671 23.5247H102.056C101.788 23.5247 101.551 23.751 101.551 24.0185C101.551 24.2963 101.788 24.5329 102.056 24.5329H103.671ZM103.671 26.5905C103.949 26.5905 104.185 26.3539 104.185 26.0864C104.185 25.8189 103.949 25.5926 103.671 25.5926H102.056C101.788 25.5926 101.551 25.8189 101.551 26.0864C101.551 26.3539 101.788 26.5905 102.056 26.5905H103.671Z" fill="#737373"/>
<path d="M153.5 19.5L147 26L153.5 32.5" stroke="#737373" stroke-width="1.5" stroke-linecap="round" stroke-linejoin="round"/>
<path opacity="0.3" d="M181 32.5L187.5 26L181 19.5" stroke="#BFBFBF" stroke-width="1.5" stroke-linecap="round" stroke-linejoin="round"/>
<path d="M31.5 26C31.5 29.0376 29.0376 31.5 26 31.5C22.9624 31.5 20.5 29.0376 20.5 26C20.5 22.9624 22.9624 20.5 26 20.5C29.0376 20.5 31.5 22.9624 31.5 26Z" fill="#FF5F57" stroke="#E14640"/>
<path d="M51.5 26C51.5 29.0376 49.0376 31.5 46 31.5C42.9624 31.5 40.5 29.0376 40.5 26C40.5 22.9624 42.9624 20.5 46 20.5C49.0376 20.5 51.5 22.9624 51.5 26Z" fill="#FFBD2E" stroke="#DFA123"/>
<path d="M71.5 26C71.5 29.0376 69.0376 31.5 66 31.5C62.9624 31.5 60.5 29.0376 60.5 26C60.5 22.9624 62.9624 20.5 66 20.5C69.0376 20.5 71.5 22.9624 71.5 26Z" fill="#28CA42" stroke="#1DAD2C"/>
<path d="M475.73 30H474.556V20.25H475.73V30ZM479.863 28.2798L481.462 23.1318H482.719L479.958 31.0601C479.53 32.2026 478.851 32.7739 477.92 32.7739L477.698 32.7549L477.26 32.6724V31.7202L477.577 31.7456C477.975 31.7456 478.284 31.6652 478.504 31.5044C478.728 31.3436 478.913 31.0495 479.056 30.6221L479.317 29.9238L476.866 23.1318H478.149L479.863 28.2798ZM487.093 24.1855C486.915 24.1559 486.722 24.1411 486.515 24.1411C485.745 24.1411 485.222 24.4691 484.947 25.125V30H483.773V23.1318H484.915L484.934 23.9253C485.319 23.3117 485.865 23.0049 486.572 23.0049C486.801 23.0049 486.974 23.0345 487.093 23.0938V24.1855ZM492.164 30C492.097 29.8646 492.042 29.6234 491.999 29.2764C491.453 29.8434 490.802 30.127 490.044 30.127C489.367 30.127 488.811 29.9365 488.375 29.5557C487.943 29.1706 487.727 28.6839 487.727 28.0957C487.727 27.3805 487.998 26.8262 488.54 26.4326C489.086 26.0348 489.852 25.8359 490.838 25.8359H491.98V25.2964C491.98 24.8859 491.858 24.5601 491.612 24.3188C491.367 24.0734 491.005 23.9507 490.527 23.9507C490.108 23.9507 489.756 24.0565 489.473 24.2681C489.189 24.4797 489.048 24.7357 489.048 25.0361H487.867C487.867 24.6934 487.988 24.3633 488.229 24.0459C488.474 23.7243 488.804 23.4704 489.219 23.2842C489.638 23.098 490.097 23.0049 490.596 23.0049C491.388 23.0049 492.008 23.2038 492.456 23.6016C492.905 23.9951 493.138 24.5389 493.155 25.2329V28.394C493.155 29.0246 493.235 29.526 493.396 29.8984V30H492.164ZM490.216 29.105C490.584 29.105 490.933 29.0098 491.263 28.8193C491.593 28.6289 491.832 28.3813 491.98 28.0767V26.6675H491.06C489.621 26.6675 488.902 27.0885 488.902 27.9307C488.902 28.2988 489.024 28.5866 489.27 28.7939C489.515 29.0013 489.83 29.105 490.216 29.105ZM496.271 30H495.097V20.25H496.271V30ZM502.397 30C502.329 29.8646 502.274 29.6234 502.232 29.2764C501.686 29.8434 501.034 30.127 500.277 30.127C499.6 30.127 499.043 29.9365 498.607 29.5557C498.176 29.1706 497.96 28.6839 497.96 28.0957C497.96 27.3805 498.231 26.8262 498.772 26.4326C499.318 26.0348 500.084 25.8359 501.07 25.8359H502.213V25.2964C502.213 24.8859 502.09 24.5601 501.844 24.3188C501.599 24.0734 501.237 23.9507 500.759 23.9507C500.34 23.9507 499.989 24.0565 499.705 24.2681C499.422 24.4797 499.28 24.7357 499.28 25.0361H498.099C498.099 24.6934 498.22 24.3633 498.461 24.0459C498.707 23.7243 499.037 23.4704 499.451 23.2842C499.87 23.098 500.33 23.0049 500.829 23.0049C501.62 23.0049 502.24 23.2038 502.689 23.6016C503.137 23.9951 503.37 24.5389 503.387 25.2329V28.394C503.387 29.0246 503.467 29.526 503.628 29.8984V30H502.397ZM500.448 29.105C500.816 29.105 501.165 29.0098 501.495 28.8193C501.825 28.6289 502.065 28.3813 502.213 28.0767V26.6675H501.292C499.853 26.6675 499.134 27.0885 499.134 27.9307C499.134 28.2988 499.257 28.5866 499.502 28.7939C499.748 29.0013 500.063 29.105 500.448 29.105ZM511.042 26.6421C511.042 27.6916 510.801 28.5358 510.319 29.1748C509.836 29.8096 509.189 30.127 508.376 30.127C507.509 30.127 506.838 29.8201 506.364 29.2065L506.307 30H505.228V20.25H506.402V23.8872C506.876 23.299 507.53 23.0049 508.364 23.0049C509.197 23.0049 509.851 23.3201 510.325 23.9507C510.803 24.5812 511.042 25.4445 511.042 26.5405V26.6421ZM509.868 26.5088C509.868 25.709 509.713 25.0911 509.405 24.6553C509.096 24.2194 508.651 24.0015 508.072 24.0015C507.297 24.0015 506.741 24.3612 506.402 25.0806V28.0513C506.762 28.7707 507.323 29.1304 508.084 29.1304C508.647 29.1304 509.085 28.9124 509.398 28.4766C509.711 28.0407 509.868 27.3848 509.868 26.5088ZM516.527 28.1782C516.527 27.8608 516.406 27.6154 516.165 27.4419C515.928 27.2642 515.511 27.1118 514.914 26.9849C514.322 26.8579 513.85 26.7056 513.499 26.5278C513.152 26.3501 512.894 26.1385 512.724 25.8931C512.559 25.6476 512.477 25.3556 512.477 25.0171C512.477 24.4543 512.714 23.9782 513.188 23.5889C513.666 23.1995 514.275 23.0049 515.016 23.0049C515.795 23.0049 516.425 23.2059 516.907 23.6079C517.394 24.0099 517.637 24.5241 517.637 25.1504H516.457C516.457 24.8288 516.319 24.5516 516.044 24.3188C515.773 24.0861 515.431 23.9697 515.016 23.9697C514.588 23.9697 514.254 24.0628 514.013 24.249C513.772 24.4352 513.651 24.6785 513.651 24.979C513.651 25.2625 513.763 25.4762 513.988 25.6201C514.212 25.764 514.616 25.9015 515.2 26.0327C515.788 26.1639 516.264 26.3205 516.628 26.5024C516.992 26.6844 517.261 26.9045 517.434 27.1626C517.612 27.4165 517.701 27.7275 517.701 28.0957C517.701 28.7093 517.455 29.2023 516.965 29.5747C516.474 29.9429 515.837 30.127 515.054 30.127C514.504 30.127 514.017 30.0296 513.594 29.835C513.171 29.6403 512.839 29.3695 512.597 29.0225C512.36 28.6712 512.242 28.2925 512.242 27.8862H513.416C513.437 28.2798 513.594 28.5929 513.886 28.8257C514.182 29.0542 514.572 29.1685 515.054 29.1685C515.498 29.1685 515.854 29.0796 516.12 28.9019C516.391 28.7199 516.527 28.4787 516.527 28.1782ZM519.256 29.3843C519.256 29.1812 519.315 29.0119 519.434 28.8765C519.557 28.741 519.739 28.6733 519.98 28.6733C520.221 28.6733 520.403 28.741 520.526 28.8765C520.653 29.0119 520.716 29.1812 520.716 29.3843C520.716 29.5789 520.653 29.7419 520.526 29.873C520.403 30.0042 520.221 30.0698 519.98 30.0698C519.739 30.0698 519.557 30.0042 519.434 29.873C519.315 29.7419 519.256 29.5789 519.256 29.3843ZM523.934 30H522.76V23.1318H523.934V30ZM522.665 21.3101C522.665 21.1196 522.722 20.9588 522.836 20.8276C522.955 20.6965 523.128 20.6309 523.357 20.6309C523.585 20.6309 523.759 20.6965 523.877 20.8276C523.996 20.9588 524.055 21.1196 524.055 21.3101C524.055 21.5005 523.996 21.6592 523.877 21.7861C523.759 21.9131 523.585 21.9766 523.357 21.9766C523.128 21.9766 522.955 21.9131 522.836 21.7861C522.722 21.6592 522.665 21.5005 522.665 21.3101ZM525.509 26.5024C525.509 25.8296 525.64 25.2244 525.902 24.687C526.169 24.1496 526.537 23.7349 527.007 23.4429C527.481 23.1509 528.02 23.0049 528.625 23.0049C529.56 23.0049 530.316 23.3286 530.891 23.9761C531.471 24.6235 531.761 25.4847 531.761 26.5596V26.6421C531.761 27.3107 531.632 27.9116 531.374 28.4448C531.12 28.9738 530.754 29.3864 530.276 29.6826C529.802 29.9788 529.256 30.127 528.638 30.127C527.707 30.127 526.952 29.8032 526.372 29.1558C525.796 28.5083 525.509 27.6514 525.509 26.585V26.5024ZM526.689 26.6421C526.689 27.4038 526.865 28.0153 527.216 28.4766C527.572 28.9378 528.045 29.1685 528.638 29.1685C529.235 29.1685 529.709 28.9357 530.06 28.4702C530.411 28.0005 530.587 27.3446 530.587 26.5024C530.587 25.7492 530.407 25.1398 530.047 24.6743C529.692 24.2046 529.218 23.9697 528.625 23.9697C528.045 23.9697 527.578 24.2004 527.222 24.6616C526.867 25.1229 526.689 25.783 526.689 26.6421Z" fill="white"/>
<defs>
<filter id="filter0_bii" x="-67.957" y="-67.957" width="1074.91" height="187.914" filterUnits="userSpaceOnUse" color-interpolation-filters="sRGB">
<feFlood flood-opacity="0" result="BackgroundImageFix"/>
<feGaussianBlur in="BackgroundImage" stdDeviation="33.9785"/>
<feComposite in2="SourceAlpha" operator="in" result="effect1_backgroundBlur"/>
<feBlend mode="normal" in="SourceGraphic" in2="effect1_backgroundBlur" result="shape"/>
<feColorMatrix in="SourceAlpha" type="matrix" values="0 0 0 0 0 0 0 0 0 0 0 0 0 0 0 0 0 0 127 0" result="hardAlpha"/>
<feOffset dy="1"/>
<feComposite in2="hardAlpha" operator="arithmetic" k2="-1" k3="1"/>
<feColorMatrix type="matrix" values="0 0 0 0 1 0 0 0 0 1 0 0 0 0 1 0 0 0 0.2 0"/>
<feBlend mode="normal" in2="shape" result="effect2_innerShadow"/>
<feColorMatrix in="SourceAlpha" type="matrix" values="0 0 0 0 0 0 0 0 0 0 0 0 0 0 0 0 0 0 127 0" result="hardAlpha"/>
<feOffset dy="-1"/>
<feComposite in2="hardAlpha" operator="arithmetic" k2="-1" k3="1"/>
<feColorMatrix type="matrix" values="0 0 0 0 0 0 0 0 0 0 0 0 0 0 0 0 0 0 0.1 0"/>
<feBlend mode="normal" in2="effect2_innerShadow" result="effect3_innerShadow"/>
</filter>
</defs>
</svg>
