<svg width="1088" height="52" viewBox="0 0 1088 52" fill="none" xmlns="http://www.w3.org/2000/svg">
<g filter="url(#filter0_bii)">
<path fill-rule="evenodd" clip-rule="evenodd" d="M9.99998 0C4.47713 0 0 4.47715 0 10V52H1088V10C1088 4.47715 1083.52 0 1078 0H9.99998Z" fill="#202124"/>
</g>
<path d="M977.495 27.3969C977.91 27.3969 978.262 27.056 978.262 26.6513V18.3442L978.198 17.0661L978.646 17.556L979.819 18.8234C979.957 18.9725 980.149 19.0471 980.33 19.0471C980.736 19.0471 981.034 18.7702 981.034 18.3868C981.034 18.1738 980.949 18.0247 980.8 17.8862L978.049 15.2556C977.857 15.0639 977.697 15 977.495 15C977.303 15 977.143 15.0639 976.94 15.2556L974.19 17.8862C974.051 18.0247 973.966 18.1738 973.966 18.3868C973.966 18.7702 974.254 19.0471 974.659 19.0471C974.84 19.0471 975.043 18.9725 975.181 18.8234L976.354 17.556L976.802 17.0661L976.738 18.3442V26.6513C976.738 27.056 977.09 27.3969 977.495 27.3969ZM972.719 34H982.281C984.104 34 985 33.1054 985 31.3161V23.1261C985 21.3369 984.104 20.4423 982.281 20.4423H979.989V21.9865H982.26C983.017 21.9865 983.465 22.4019 983.465 23.2007V31.2416C983.465 32.051 983.017 32.4557 982.26 32.4557H972.74C971.972 32.4557 971.535 32.051 971.535 31.2416V23.2007C971.535 22.4019 971.972 21.9865 972.74 21.9865H975.011V20.4423H972.719C970.906 20.4423 970 21.3369 970 23.1261V31.3161C970 33.1054 970.906 34 972.719 34Z" fill="#767676"/>
<path d="M1018.02 32.6401C1018.49 32.6401 1018.87 32.2646 1018.87 31.7925V26.3745H1024.16C1024.63 26.3745 1025.02 25.9775 1025.02 25.5055C1025.02 25.0334 1024.63 24.6364 1024.16 24.6364H1018.87V19.2077C1018.87 18.7356 1018.49 18.3601 1018.02 18.3601C1017.54 18.3601 1017.15 18.7356 1017.15 19.2077V24.6364H1011.87C1011.4 24.6364 1011 25.0334 1011 25.5055C1011 25.9775 1011.4 26.3745 1011.87 26.3745H1017.15V31.7925C1017.15 32.2646 1017.54 32.6401 1018.02 32.6401Z" fill="#767676"/>
<path d="M1052.68 30.2898H1053.98V31.5914C1053.98 33.3407 1054.85 34.205 1056.63 34.205H1064.82C1066.59 34.205 1067.47 33.3407 1067.47 31.5914V23.3237C1067.47 21.5744 1066.59 20.7102 1064.82 20.7102H1063.52V19.4086C1063.52 17.6592 1062.63 16.795 1060.86 16.795H1052.68C1050.9 16.795 1050.02 17.6592 1050.02 19.4086V27.6763C1050.02 29.4256 1050.9 30.2898 1052.68 30.2898ZM1052.7 28.7904C1051.95 28.7904 1051.52 28.3843 1051.52 27.593V19.4919C1051.52 18.7005 1051.95 18.2944 1052.7 18.2944H1060.84C1061.59 18.2944 1062.02 18.7005 1062.02 19.4919V20.7102H1056.63C1054.85 20.7102 1053.98 21.5744 1053.98 23.3237V28.7904H1052.7ZM1056.66 32.7056C1055.91 32.7056 1055.48 32.2995 1055.48 31.5081V23.4071C1055.48 22.6157 1055.91 22.2096 1056.66 22.2096H1064.8C1065.55 22.2096 1065.97 22.6157 1065.97 23.4071V31.5081C1065.97 32.2995 1065.55 32.7056 1064.8 32.7056H1056.66Z" fill="#767676"/>
<path d="M375 34.5C375.116 34.5 375.328 34.4574 375.561 34.3298C380.316 31.7128 382 30.5213 382 27.3723V20.9681C382 20.0958 381.587 19.8298 380.93 19.5426C380.073 19.1702 376.567 17.9255 375.71 17.6277C375.487 17.5532 375.244 17.5 375 17.5C374.756 17.5 374.502 17.5745 374.29 17.6277C373.433 17.8404 369.927 19.1809 369.07 19.5426C368.413 19.8191 368 20.0958 368 20.9681V27.3723C368 30.5213 369.684 31.7021 374.439 34.3298C374.672 34.4574 374.884 34.5 375 34.5ZM375.286 19.0957C376.631 19.6383 378.887 20.4362 380.274 20.9043C380.454 20.9681 380.486 21.0638 380.486 21.2553V27C380.486 29.5851 379.352 30.266 375.53 32.5638C375.265 32.7234 375.138 32.7553 375.011 32.7553V19.0426C375.085 19.0426 375.18 19.0532 375.286 19.0957Z" fill="#737373"/>
<rect x="400" y="12" width="360" height="28" rx="5" fill="#474A4D"/>
<path d="M747.994 21L750.33 23.3362L747.994 25.6724M753 27.6193C753 30.1998 750.908 32.2917 748.328 32.2917C745.747 32.2917 743.655 30.1998 743.655 27.6193C743.655 25.0388 745.747 22.9468 748.328 22.9468C748.874 22.9468 749.496 22.9468 750.275 23.3362" stroke="#737373" stroke-linecap="round" stroke-linejoin="round"/>
<path d="M533.318 33.0011H539.631C540.515 33.0011 540.949 32.5674 540.949 31.6083V26.7544C540.949 25.9037 540.599 25.4617 539.898 25.3783V23.7269C539.898 21.1665 538.18 19.9989 536.479 19.9989C534.769 19.9989 533.059 21.1665 533.059 23.7269V25.4033C532.4 25.5284 532 25.9621 532 26.7544V31.6083C532 32.5674 532.442 33.0011 533.318 33.0011ZM534.435 23.5768C534.435 22.0839 535.386 21.3166 536.479 21.3166C537.563 21.3166 538.522 22.0839 538.522 23.5768V25.3616L534.435 25.3699V23.5768Z" fill="#9E9E9E"/>
<path d="M101.623 33H115.461C117.22 33 118.084 32.1358 118.084 30.4074V20.5926C118.084 18.8642 117.22 18 115.461 18H101.623C99.8745 18 99 18.8642 99 20.5926V30.4074C99 32.1358 99.8745 33 101.623 33ZM101.644 31.5082C100.903 31.5082 100.481 31.1173 100.481 30.3354V20.6646C100.481 19.893 100.903 19.4918 101.644 19.4918H105.224V31.5082H101.644ZM115.44 19.4918C116.181 19.4918 116.603 19.893 116.603 20.6646V30.3354C116.603 31.1173 116.181 31.5082 115.44 31.5082H106.675V19.4918H115.44ZM103.671 22.4753C103.949 22.4753 104.185 22.2284 104.185 21.9609C104.185 21.6934 103.949 21.4671 103.671 21.4671H102.056C101.788 21.4671 101.551 21.6934 101.551 21.9609C101.551 22.2284 101.788 22.4753 102.056 22.4753H103.671ZM103.671 24.5329C103.949 24.5329 104.185 24.2963 104.185 24.0185C104.185 23.751 103.949 23.5247 103.671 23.5247H102.056C101.788 23.5247 101.551 23.751 101.551 24.0185C101.551 24.2963 101.788 24.5329 102.056 24.5329H103.671ZM103.671 26.5905C103.949 26.5905 104.185 26.3539 104.185 26.0864C104.185 25.8189 103.949 25.5926 103.671 25.5926H102.056C101.788 25.5926 101.551 25.8189 101.551 26.0864C101.551 26.3539 101.788 26.5905 102.056 26.5905H103.671Z" fill="#737373"/>
<path d="M153.5 19.5L147 26L153.5 32.5" stroke="#737373" stroke-width="1.5" stroke-linecap="round" stroke-linejoin="round"/>
<path opacity="0.3" d="M181 32.5L187.5 26L181 19.5" stroke="#BFBFBF" stroke-width="1.5" stroke-linecap="round" stroke-linejoin="round"/>
<path d="M31.5 26C31.5 29.0376 29.0376 31.5 26 31.5C22.9624 31.5 20.5 29.0376 20.5 26C20.5 22.9624 22.9624 20.5 26 20.5C29.0376 20.5 31.5 22.9624 31.5 26Z" fill="#FF5F57" stroke="#E14640"/>
<path d="M51.5 26C51.5 29.0376 49.0376 31.5 46 31.5C42.9624 31.5 40.5 29.0376 40.5 26C40.5 22.9624 42.9624 20.5 46 20.5C49.0376 20.5 51.5 22.9624 51.5 26Z" fill="#FFBD2E" stroke="#DFA123"/>
<path d="M71.5 26C71.5 29.0376 69.0376 31.5 66 31.5C62.9624 31.5 60.5 29.0376 60.5 26C60.5 22.9624 62.9624 20.5 66 20.5C69.0376 20.5 71.5 22.9624 71.5 26Z" fill="#28CA42" stroke="#1DAD2C"/>
<path d="M549.165 30H547.99V20.25H549.165V30ZM553.297 28.2798L554.896 23.1318H556.153L553.392 31.0601C552.965 32.2026 552.285 32.7739 551.354 32.7739L551.132 32.7549L550.694 32.6724V31.7202L551.012 31.7456C551.41 31.7456 551.718 31.6652 551.938 31.5044C552.163 31.3436 552.347 31.0495 552.491 30.6221L552.751 29.9238L550.301 23.1318H551.583L553.297 28.2798ZM560.527 24.1855C560.349 24.1559 560.157 24.1411 559.949 24.1411C559.179 24.1411 558.656 24.4691 558.381 25.125V30H557.207V23.1318H558.35L558.369 23.9253C558.754 23.3117 559.3 23.0049 560.006 23.0049C560.235 23.0049 560.408 23.0345 560.527 23.0938V24.1855ZM565.599 30C565.531 29.8646 565.476 29.6234 565.434 29.2764C564.888 29.8434 564.236 30.127 563.479 30.127C562.801 30.127 562.245 29.9365 561.809 29.5557C561.377 29.1706 561.162 28.6839 561.162 28.0957C561.162 27.3805 561.432 26.8262 561.974 26.4326C562.52 26.0348 563.286 25.8359 564.272 25.8359H565.415V25.2964C565.415 24.8859 565.292 24.5601 565.046 24.3188C564.801 24.0734 564.439 23.9507 563.961 23.9507C563.542 23.9507 563.191 24.0565 562.907 24.2681C562.624 24.4797 562.482 24.7357 562.482 25.0361H561.301C561.301 24.6934 561.422 24.3633 561.663 24.0459C561.909 23.7243 562.239 23.4704 562.653 23.2842C563.072 23.098 563.531 23.0049 564.031 23.0049C564.822 23.0049 565.442 23.2038 565.891 23.6016C566.339 23.9951 566.572 24.5389 566.589 25.2329V28.394C566.589 29.0246 566.669 29.526 566.83 29.8984V30H565.599ZM563.65 29.105C564.018 29.105 564.367 29.0098 564.697 28.8193C565.027 28.6289 565.266 28.3813 565.415 28.0767V26.6675H564.494C563.055 26.6675 562.336 27.0885 562.336 27.9307C562.336 28.2988 562.459 28.5866 562.704 28.7939C562.95 29.0013 563.265 29.105 563.65 29.105ZM569.706 30H568.531V20.25H569.706V30ZM575.831 30C575.763 29.8646 575.708 29.6234 575.666 29.2764C575.12 29.8434 574.468 30.127 573.711 30.127C573.034 30.127 572.477 29.9365 572.042 29.5557C571.61 29.1706 571.394 28.6839 571.394 28.0957C571.394 27.3805 571.665 26.8262 572.207 26.4326C572.752 26.0348 573.518 25.8359 574.504 25.8359H575.647V25.2964C575.647 24.8859 575.524 24.5601 575.279 24.3188C575.033 24.0734 574.672 23.9507 574.193 23.9507C573.774 23.9507 573.423 24.0565 573.14 24.2681C572.856 24.4797 572.714 24.7357 572.714 25.0361H571.534C571.534 24.6934 571.654 24.3633 571.896 24.0459C572.141 23.7243 572.471 23.4704 572.886 23.2842C573.305 23.098 573.764 23.0049 574.263 23.0049C575.055 23.0049 575.674 23.2038 576.123 23.6016C576.572 23.9951 576.804 24.5389 576.821 25.2329V28.394C576.821 29.0246 576.902 29.526 577.062 29.8984V30H575.831ZM573.882 29.105C574.25 29.105 574.6 29.0098 574.93 28.8193C575.26 28.6289 575.499 28.3813 575.647 28.0767V26.6675H574.727C573.288 26.6675 572.568 27.0885 572.568 27.9307C572.568 28.2988 572.691 28.5866 572.937 28.7939C573.182 29.0013 573.497 29.105 573.882 29.105ZM584.477 26.6421C584.477 27.6916 584.235 28.5358 583.753 29.1748C583.271 29.8096 582.623 30.127 581.811 30.127C580.943 30.127 580.272 29.8201 579.798 29.2065L579.741 30H578.662V20.25H579.836V23.8872C580.31 23.299 580.964 23.0049 581.798 23.0049C582.632 23.0049 583.285 23.3201 583.759 23.9507C584.237 24.5812 584.477 25.4445 584.477 26.5405V26.6421ZM583.302 26.5088C583.302 25.709 583.148 25.0911 582.839 24.6553C582.53 24.2194 582.086 24.0015 581.506 24.0015C580.731 24.0015 580.175 24.3612 579.836 25.0806V28.0513C580.196 28.7707 580.757 29.1304 581.519 29.1304C582.081 29.1304 582.519 28.9124 582.833 28.4766C583.146 28.0407 583.302 27.3848 583.302 26.5088ZM589.961 28.1782C589.961 27.8608 589.84 27.6154 589.599 27.4419C589.362 27.2642 588.945 27.1118 588.349 26.9849C587.756 26.8579 587.284 26.7056 586.933 26.5278C586.586 26.3501 586.328 26.1385 586.159 25.8931C585.994 25.6476 585.911 25.3556 585.911 25.0171C585.911 24.4543 586.148 23.9782 586.622 23.5889C587.1 23.1995 587.71 23.0049 588.45 23.0049C589.229 23.0049 589.859 23.2059 590.342 23.6079C590.828 24.0099 591.072 24.5241 591.072 25.1504H589.891C589.891 24.8288 589.754 24.5516 589.479 24.3188C589.208 24.0861 588.865 23.9697 588.45 23.9697C588.023 23.9697 587.688 24.0628 587.447 24.249C587.206 24.4352 587.085 24.6785 587.085 24.979C587.085 25.2625 587.198 25.4762 587.422 25.6201C587.646 25.764 588.05 25.9015 588.634 26.0327C589.222 26.1639 589.699 26.3205 590.062 26.5024C590.426 26.6844 590.695 26.9045 590.869 27.1626C591.046 27.4165 591.135 27.7275 591.135 28.0957C591.135 28.7093 590.89 29.2023 590.399 29.5747C589.908 29.9429 589.271 30.127 588.488 30.127C587.938 30.127 587.451 30.0296 587.028 29.835C586.605 29.6403 586.273 29.3695 586.032 29.0225C585.795 28.6712 585.676 28.2925 585.676 27.8862H586.851C586.872 28.2798 587.028 28.5929 587.32 28.8257C587.617 29.0542 588.006 29.1685 588.488 29.1685C588.933 29.1685 589.288 29.0796 589.555 28.9019C589.826 28.7199 589.961 28.4787 589.961 28.1782ZM592.69 29.3843C592.69 29.1812 592.75 29.0119 592.868 28.8765C592.991 28.741 593.173 28.6733 593.414 28.6733C593.655 28.6733 593.837 28.741 593.96 28.8765C594.087 29.0119 594.15 29.1812 594.15 29.3843C594.15 29.5789 594.087 29.7419 593.96 29.873C593.837 30.0042 593.655 30.0698 593.414 30.0698C593.173 30.0698 592.991 30.0042 592.868 29.873C592.75 29.7419 592.69 29.5789 592.69 29.3843ZM597.369 30H596.194V23.1318H597.369V30ZM596.099 21.3101C596.099 21.1196 596.156 20.9588 596.271 20.8276C596.389 20.6965 596.562 20.6309 596.791 20.6309C597.02 20.6309 597.193 20.6965 597.312 20.8276C597.43 20.9588 597.489 21.1196 597.489 21.3101C597.489 21.5005 597.43 21.6592 597.312 21.7861C597.193 21.9131 597.02 21.9766 596.791 21.9766C596.562 21.9766 596.389 21.9131 596.271 21.7861C596.156 21.6592 596.099 21.5005 596.099 21.3101ZM598.943 26.5024C598.943 25.8296 599.074 25.2244 599.336 24.687C599.603 24.1496 599.971 23.7349 600.441 23.4429C600.915 23.1509 601.454 23.0049 602.06 23.0049C602.995 23.0049 603.75 23.3286 604.326 23.9761C604.905 24.6235 605.195 25.4847 605.195 26.5596V26.6421C605.195 27.3107 605.066 27.9116 604.808 28.4448C604.554 28.9738 604.188 29.3864 603.71 29.6826C603.236 29.9788 602.69 30.127 602.072 30.127C601.141 30.127 600.386 29.8032 599.806 29.1558C599.231 28.5083 598.943 27.6514 598.943 26.585V26.5024ZM600.124 26.6421C600.124 27.4038 600.299 28.0153 600.65 28.4766C601.006 28.9378 601.48 29.1685 602.072 29.1685C602.669 29.1685 603.143 28.9357 603.494 28.4702C603.845 28.0005 604.021 27.3446 604.021 26.5024C604.021 25.7492 603.841 25.1398 603.481 24.6743C603.126 24.2046 602.652 23.9697 602.06 23.9697C601.48 23.9697 601.012 24.2004 600.657 24.6616C600.301 25.1229 600.124 25.783 600.124 26.6421Z" fill="white"/>
<defs>
<filter id="filter0_bii" x="-67.957" y="-67.957" width="1223.91" height="187.914" filterUnits="userSpaceOnUse" color-interpolation-filters="sRGB">
<feFlood flood-opacity="0" result="BackgroundImageFix"/>
<feGaussianBlur in="BackgroundImage" stdDeviation="33.9785"/>
<feComposite in2="SourceAlpha" operator="in" result="effect1_backgroundBlur"/>
<feBlend mode="normal" in="SourceGraphic" in2="effect1_backgroundBlur" result="shape"/>
<feColorMatrix in="SourceAlpha" type="matrix" values="0 0 0 0 0 0 0 0 0 0 0 0 0 0 0 0 0 0 127 0" result="hardAlpha"/>
<feOffset dy="1"/>
<feComposite in2="hardAlpha" operator="arithmetic" k2="-1" k3="1"/>
<feColorMatrix type="matrix" values="0 0 0 0 1 0 0 0 0 1 0 0 0 0 1 0 0 0 0.2 0"/>
<feBlend mode="normal" in2="shape" result="effect2_innerShadow"/>
<feColorMatrix in="SourceAlpha" type="matrix" values="0 0 0 0 0 0 0 0 0 0 0 0 0 0 0 0 0 0 127 0" result="hardAlpha"/>
<feOffset dy="-1"/>
<feComposite in2="hardAlpha" operator="arithmetic" k2="-1" k3="1"/>
<feColorMatrix type="matrix" values="0 0 0 0 0 0 0 0 0 0 0 0 0 0 0 0 0 0 0.1 0"/>
<feBlend mode="normal" in2="effect2_innerShadow" result="effect3_innerShadow"/>
</filter>
</defs>
</svg>
