<svg xmlns="http://www.w3.org/2000/svg" width="219.569" height="156.899" viewBox="0 0 219.569 156.899">
  <g id="line_magnifier_" data-name="line/magnifier " transform="translate(0 1.5)">
    <path id="Shape" d="M74.528,138.682h0a12.267,12.267,0,0,1-6.447-4.332,14.858,14.858,0,0,1-5.351,1.123,8.1,8.1,0,0,1-2.376-.326,12.26,12.26,0,0,1,4.332-6.448,12.264,12.264,0,0,1-.8-7.726,12.26,12.26,0,0,1,6.449,4.332,14.855,14.855,0,0,1,5.352-1.123,8.116,8.116,0,0,1,2.375.325,12.262,12.262,0,0,1-4.333,6.449,12.267,12.267,0,0,1,.8,7.726ZM14.052,98.05h0c-2.14-1.55-3.95-4.551-4.965-8.232C5.274,89.59,1.962,88.443,0,86.672,1.55,84.53,4.551,82.72,8.232,81.7c.228-3.812,1.375-7.124,3.146-9.086,2.142,1.551,3.952,4.552,4.967,8.232,3.813.229,7.125,1.376,9.085,3.147-1.552,2.142-4.553,3.952-8.232,4.967-.228,3.811-1.375,7.122-3.147,9.084ZM196.259,35.189h0c-1.917-3.309-2.545-8.34-1.72-13.8-4.905-2.545-8.608-6.01-10.157-9.507a18.527,18.527,0,0,1,9.2-2.076,30.985,30.985,0,0,1,4.6.356C200.73,5.252,204.2,1.55,207.692,0c1.918,3.31,2.544,8.342,1.72,13.805,4.905,2.545,8.608,6.01,10.157,9.507a18.527,18.527,0,0,1-9.2,2.076,30.992,30.992,0,0,1-4.6-.356c-2.544,4.9-6.009,8.607-9.5,10.157Z" transform="translate(0 16.717)" fill="#e0e2ff"/>
    <g id="magnifier" transform="translate(185.664)">
      <g id="handle" transform="translate(-47.566 78.83) rotate(-40)">
        <path id="Rectangle_9" data-name="Rectangle 9" d="M0,6A6.006,6.006,0,0,0-5.776,0L-6,0a6,6,0,0,0-6,6V67.354a6.006,6.006,0,0,0,5.776,6l.224,0a6,6,0,0,0,6-6Z" transform="translate(-7.766 0)" fill="#e6e9ff" stroke="#828ff4" stroke-linecap="round" stroke-miterlimit="10" stroke-width="3"/>
        <path id="Rectangle_9-2" data-name="Rectangle 9" d="M0,13A13,13,0,0,0-12.693,0L-13,0A13,13,0,0,0-26,13V30A13,13,0,0,0-13.307,43L-13,43A13,13,0,0,0,0,30Z" transform="translate(-0.766 30.357)" fill="#fff" stroke="#7e86ee" stroke-linecap="round" stroke-miterlimit="10" stroke-width="3"/>
        <path id="Line" d="M-1,16.715V0" transform="translate(-8.175 44.48)" fill="#fff" stroke="#7e86ee" stroke-linecap="round" stroke-miterlimit="10" stroke-width="3"/>
      </g>
      <path id="lens" d="M-54,108a53.661,53.661,0,0,0,21.019-4.244,54,54,0,0,0,9.173-4.979,54.388,54.388,0,0,0,7.992-6.594,54.387,54.387,0,0,0,6.594-7.992,54,54,0,0,0,4.979-9.173A53.661,53.661,0,0,0,0,54,53.661,53.661,0,0,0-4.244,32.981a54.005,54.005,0,0,0-4.979-9.173,54.389,54.389,0,0,0-6.594-7.992,54.389,54.389,0,0,0-7.992-6.594,54.005,54.005,0,0,0-9.173-4.979A53.661,53.661,0,0,0-54,0,53.661,53.661,0,0,0-75.019,4.244a54,54,0,0,0-9.173,4.979,54.387,54.387,0,0,0-7.992,6.594,54.388,54.388,0,0,0-6.594,7.992,54,54,0,0,0-4.979,9.173A53.661,53.661,0,0,0-108,54a53.662,53.662,0,0,0,4.244,21.019,54,54,0,0,0,4.979,9.173,54.387,54.387,0,0,0,6.594,7.992,54.387,54.387,0,0,0,7.992,6.594,54,54,0,0,0,9.173,4.979A53.662,53.662,0,0,0-54,108Zm0-96a41.736,41.736,0,0,1,16.348,3.3,41.861,41.861,0,0,1,13.35,9,41.861,41.861,0,0,1,9,13.35A41.736,41.736,0,0,1-12,54a41.736,41.736,0,0,1-3.3,16.348,41.861,41.861,0,0,1-9,13.35,41.861,41.861,0,0,1-13.35,9A41.736,41.736,0,0,1-54,96a41.736,41.736,0,0,1-16.348-3.3,41.861,41.861,0,0,1-13.35-9,41.861,41.861,0,0,1-9-13.35A41.736,41.736,0,0,1-96,54a41.736,41.736,0,0,1,3.3-16.348,41.861,41.861,0,0,1,9-13.35,41.861,41.861,0,0,1,13.35-9A41.736,41.736,0,0,1-54,12Z" transform="translate(-34)" fill="#e6e9ff" stroke="#828ff4" stroke-linecap="round" stroke-miterlimit="10" stroke-width="3"/>
    </g>
  </g>
</svg>
