<svg xmlns="http://www.w3.org/2000/svg" width="230.787" height="174.172" viewBox="0 0 230.787 174.172">
  <g id="Group_1" data-name="Group 1" transform="translate(-3159.309 -258.828)">
    <path id="Shape" d="M225.023,165.194h0c-2.6-.694-5.42-2.886-7.728-6.015a19.758,19.758,0,0,1-5.852.976,10.948,10.948,0,0,1-3.936-.652c.693-2.6,2.886-5.419,6.016-7.728-1.175-3.708-1.293-7.276-.324-9.788,2.6.693,5.419,2.886,7.729,6.016a19.749,19.749,0,0,1,5.851-.976,10.961,10.961,0,0,1,3.937.652c-.693,2.6-2.886,5.419-6.016,7.728,1.174,3.708,1.293,7.275.324,9.788ZM9.04,102.181h0C7.6,99.965,6.983,96.515,7.354,92.715,3.877,91.136,1.2,88.879,0,86.521a13.678,13.678,0,0,1,7.322-1.793c.7,0,1.42.036,2.143.106,1.579-3.477,3.837-6.158,6.194-7.354,1.443,2.215,2.058,5.664,1.687,9.465,3.477,1.579,6.158,3.837,7.354,6.194a13.678,13.678,0,0,1-7.322,1.793c-.7,0-1.42-.036-2.144-.106-1.579,3.477-3.836,6.157-6.193,7.354ZM19.168,32.669h0c-1.313-3.593-1.057-8.657.7-13.893-4.388-3.358-7.432-7.413-8.352-11.126a15.3,15.3,0,0,1,5.243-.831,27.688,27.688,0,0,1,8.651,1.534C28.771,3.964,32.826.92,36.539,0c1.314,3.593,1.057,8.657-.7,13.894,4.388,3.358,7.432,7.413,8.352,11.126a15.294,15.294,0,0,1-5.243.831,27.693,27.693,0,0,1-8.652-1.534c-3.357,4.388-7.413,7.432-11.125,8.352Z" transform="translate(3159.309 258.828)" fill="#e0e2ff"/>
    <g id="phone" transform="translate(3229 297)">
      <path id="Path" d="M90,0a10,10,0,0,1,10,10V134.5H88V24H13V134.5H0V10A10,10,0,0,1,10,0Z" fill="#e6e9ff" stroke="#828ff4" stroke-linecap="round" stroke-miterlimit="10" stroke-width="3"/>
      <path id="Line" d="M18,1H0" transform="translate(41 10)" fill="none" stroke="#7e86ee" stroke-linecap="round" stroke-miterlimit="10" stroke-width="3" stroke-dasharray="1 8 10"/>
    </g>
    <g id="bubble" transform="translate(3300 275)">
      <path id="Combined_Shape" data-name="Combined Shape" d="M0,45.264C0,20.276,19.822,0,44.3,0S88.6,20.276,88.6,45.264C88.6,65.8,74.641,82.056,53.23,89.59l-32.2,10.969c-5.315,1.81-8.913-1.714-7.184-7.054l3.889-12.013A45.532,45.532,0,0,1,0,45.264Z" fill="#fff" stroke="#7e86ee" stroke-linecap="round" stroke-miterlimit="10" stroke-width="3"/>
      <path id="Shape-2" data-name="Shape" d="M24.775,17.3a1.382,1.382,0,0,0-1.164-.633H13.889V1.39A1.389,1.389,0,0,0,11.231.826l-11.111,25a1.391,1.391,0,0,0,1.269,1.953h9.722V43.057a1.388,1.388,0,0,0,1.1,1.358,1.481,1.481,0,0,0,.289.031,1.39,1.39,0,0,0,1.269-.825l11.111-25A1.386,1.386,0,0,0,24.775,17.3Z" transform="matrix(1, 0.017, -0.017, 1, 32.39, 24.785)" fill="#eeefff" stroke="#7e86ee" stroke-linecap="round" stroke-miterlimit="10" stroke-width="3"/>
    </g>
  </g>
</svg>
